<!-- Generated by IcoMoon.io -->
<svg version="1.1" xmlns="http://www.w3.org/2000/svg" width="1200" height="1200" viewBox="0 0 1200 1200">
<title>ball</title>
<path d="M600 0.002c331.153 0 600 268.86 600 599.998 0 331.152-268.847 599.998-600 599.998-331.139 0-600-268.846-600-599.998 0-331.138 268.861-599.998 600-599.998zM834.067 636.809c-17.699 113.29-115.827 200.109-234.067 200.109s-216.368-86.818-234.067-200.109h-289.424c18.905 272.479 246.226 487.955 523.489 487.955s504.586-215.476 523.489-487.955h-289.424zM600 438.318c-89.231 0-161.684 72.451-161.684 161.682s72.451 161.682 161.684 161.682c89.231 0 161.684-72.451 161.684-161.682s-72.451-161.682-161.684-161.682z"></path>
</svg>
