<!-- Generated by IcoMoon.io -->
<svg version="1.1" xmlns="http://www.w3.org/2000/svg" width="1200" height="1200" viewBox="0 0 1200 1200">
<title>icon-search-white</title>
<path d="M686.846 0.002c-276.186 0.594-499.848 224.625-499.848 500.892 0 104.344 31.905 201.237 86.494 281.453l-1.118-1.74-226.432 226.432c-20.077 20.456-32.469 48.517-32.469 79.471 0 62.679 50.811 113.49 113.49 113.49 30.954 0 59.013-12.393 79.488-32.487l232.35-232.35c71.101 41.167 156.422 65.459 247.416 65.459 276.314 0 500.311-223.997 500.311-500.311 0-276.093-223.638-499.952-499.648-500.311h-0.035zM686.846 206.947c148.216 1.662 269.475 114.878 283.835 259.541l0.096 1.199h-148.14c-14.865-62.234-70.009-107.79-135.791-107.79s-120.926 45.557-135.599 106.841l-0.192 0.95h-148.14c14.702-145.744 135.817-258.818 283.738-260.738l0.193-0.002zM781.262 500.313c-0.048 52.109-42.3 94.331-94.416 94.331-52.145 0-94.416-42.271-94.416-94.416s42.271-94.416 94.416-94.416c40.45 0 74.959 25.437 88.403 61.188l0.214 0.65c3.671 9.684 5.797 20.882 5.797 32.577 0 0.029 0 0.060 0 0.089v-0.005zM686.846 793.679c-145.641-1.671-265.246-110.98-283.065-252.009l-0.146-1.424h149.582c17.317 58.698 70.726 100.808 133.972 100.808s116.655-42.11 133.723-99.823l0.25-0.987h148.862c-17.966 142.452-137.571 251.761-283.041 253.43l-0.171 0.001z"></path>
</svg>
