<!-- Generated by IcoMoon.io -->
<svg version="1.1" xmlns="http://www.w3.org/2000/svg" width="1200" height="1200" viewBox="0 0 1200 1200">
<title>ball-outline</title>
<path d="M600.002 0c331.146 0 599.998 268.852 599.998 600.002 0 331.146-268.852 599.998-599.998 599.998-331.151 0-600.002-268.852-600.002-599.998 0-331.151 268.852-600.002 600.002-600.002zM1100.343 634.78l-270.949 0.241c-16.895 111.457-113.232 197.002-229.391 197.002-116.020 0-212.268-85.338-229.335-196.602l-270.949 0.237c18.308 260.186 235.461 465.875 500.283 465.875 265.123 0 482.473-206.162 500.34-466.752zM600.002 441.663c-87.393 0-158.339 70.948-158.339 158.339 0 87.388 70.948 158.336 158.339 158.336 87.388 0 158.336-70.948 158.336-158.336 0-87.393-70.948-158.339-158.336-158.339zM1100.045 561.096c-19.89-258.656-236.334-462.627-500.043-462.627-264.019 0-480.66 204.444-500.112 463.499l271.232-0.237c18.27-109.876 113.856-193.754 228.88-193.754 114.878 0 210.369 83.671 228.806 193.354l271.236-0.237z"></path>
</svg>
