<svg height="894" viewBox="0 0 894 894" width="894" xmlns="http://www.w3.org/2000/svg"><path d="m160.615 152.335c-3.127 2.373-10.111 35.201-13.226 62.165-2.541 22.001-2.314 58.886.491 79.785 5.391 40.159 17.663 76.342 36.801 108.502 16.538 27.791 43.896 57.386 71.819 77.692 4.4 3.2 8.364 6.137 8.808 6.527.445.391-1.6 4.067-4.543 8.169-9.947 13.865-17.967 31.501-22.391 49.241-3.5 14.035-4.358 36.944-1.937 51.676 10.517 63.972 66.445 117.53 143.984 137.88 23.145 6.075 40.398 8.17 67.079 8.146 51.012-.045 96.497-13.091 135.599-38.891 27.736-18.302 48.534-41.376 61.949-68.727 10.407-21.218 14.484-40.342 13.644-64-.949-26.744-8.591-49.926-24.045-72.937-3.67-5.465-6.33-10.252-5.91-10.636s6.297-4.843 13.062-9.907c23.183-17.357 44.843-40.188 60.739-64.02 42.533-63.77 56.051-145.628 38.477-233-3.415-16.981-6.548-27.673-8.281-28.266-2.472-.846-22.855 7.021-41.734 16.108-36.476 17.556-66.134 38.369-93.566 65.658-25.173 25.042-39.646 44.8-53.476 73-15.696 32.004-23.297 59.763-26.151 95.5-.637 7.975-1.237 14.62-1.333 14.767s-4.854-.848-10.574-2.21c-20.142-4.796-32.37-6.016-59.9-5.977-26.908.038-40.823 1.524-59.906 6.396-4.36 1.113-8.132 2.024-8.382 2.024s-.763-4.613-1.139-10.25c-3.801-56.867-23.04-106.096-58.916-150.75-8.157-10.153-33.209-35.014-43.657-43.325-20.299-16.147-40.513-29.126-64-41.091-26.307-13.402-46.645-21.329-49.385-19.249" fill="#040404" fill-rule="evenodd"/></svg>