<svg height="894" viewBox="0 0 894 894" width="894" xmlns="http://www.w3.org/2000/svg"><path d="m433.722 146.029c-85.781 9.725-127.896 91.246-95.776 185.393 3.683 10.797 4.273 10.207-6.524 6.524-99.785-34.044-185.723 16.418-185.723 109.054 0 93.23 86.392 143.326 187.22 108.562 9.086-3.133 8.681-3.697 5.027 7.016-34.019 99.713 16.503 185.78 109.054 185.78 93.146 0 143.301-86.521 108.562-187.277-3.107-9.013-3.494-8.626 5.519-5.519 100.756 34.739 187.277-15.416 187.277-108.562 0-92.551-86.067-143.073-185.78-109.054-10.713 3.654-10.149 4.059-7.016-5.027 36.474-105.788-23.657-198.022-121.84-186.89" fill="#040404" fill-rule="evenodd"/></svg>