<?xml version="1.0" encoding="UTF-8" standalone="no"?>
<svg
   xmlns="http://www.w3.org/2000/svg"
   width="400"
   height="400"
   version="1.1">
    <circle
       style="fill:#4a4d52;stroke:none;"
       id="path830"
       cx="200"
       cy="200"
       r="44.083992" />
    <path
       style="fill:#4a4d52;stroke:none;"
       d="m 28.170099,27.948681 c -1.27258,12.044224 8.11597,39.029139 34.40617,69.945601 -26.64427,28.776768 -41.39914,64.002958 -41.44295,102.105908 0.0238,38.44147 15.01963,75.49543 42.08683,104.69593 -26.46978,31.14559 -35.16861,58.34698 -34.97099,70.53368 12.45475,1.06887 40.60023,-9.53092 72.197661,-38.42091 31.63001,22.11044 57.54648,26.54522 84.45686,23.58512 -21.7788,-11.23077 -44.3904,-22.49144 -64.48082,-44.01127 27.92065,-31.98969 37.44006,-60.12539 36.69234,-72.55422 -11.29264,-1.69597 -35.81876,7.53471 -64.075682,31.26528 -10.33094,-22.72288 -15.90195,-48.55718 -15.92616,-75.09361 0.0123,-25.63843 5.40751,-50.47352 15.08022,-72.63226 28.533682,23.88629 53.310102,32.47033 64.819302,32.00477 2.13009,-12.50437 -8.89977,-41.59974 -38.23953,-74.359285 C 136.37264,64.894999 156.87269,52.875547 182.71054,43.085226 153.59592,36.32682 126.0246,45.078575 98.863448,65.061144 67.890279,37.392054 40.472569,27.991014 28.170099,27.948681 Z" />
    <path
       style="fill:#4a4d52;stroke:none;"
       d="m 371.79458,27.948681 c 1.27258,12.044224 -8.11597,39.029139 -34.40617,69.945601 26.64427,28.776768 41.39914,64.002958 41.44295,102.105908 -0.0238,38.44147 -15.01963,75.49543 -42.08683,104.69593 26.46978,31.14559 35.16861,58.34698 34.97099,70.53368 -12.45475,1.06887 -40.60023,-9.53092 -72.19766,-38.42091 -31.63001,22.11044 -57.54648,26.54522 -84.45686,23.58512 21.7788,-11.23077 44.3904,-22.49144 64.48082,-44.01127 -27.92065,-31.98969 -37.44006,-60.12539 -36.69234,-72.55422 11.29264,-1.69597 35.81876,7.53471 64.07568,31.26528 10.33094,-22.72288 15.90195,-48.55718 15.92616,-75.09361 -0.0123,-25.63843 -5.40751,-50.47352 -15.08022,-72.63226 -28.53368,23.88629 -53.3101,32.47033 -64.8193,32.00477 -2.13009,-12.50437 8.89977,-41.59974 38.23953,-74.359285 -17.59929,-20.118416 -38.09934,-32.137868 -63.93719,-41.928189 29.11462,-6.758406 56.68594,1.993349 83.84709,21.975918 30.97317,-27.66909 58.39088,-37.07013 70.69335,-37.112463 z" />
</svg>
