<?xml version="1.0" encoding="UTF-8" standalone="no"?>
<!DOCTYPE svg PUBLIC "-//W3C//DTD SVG 1.1//EN" "http://www.w3.org/Graphics/SVG/1.1/DTD/svg11.dtd">
<svg width="100%" height="100%" viewBox="0 0 400 400" version="1.1" xmlns="http://www.w3.org/2000/svg" xmlns:xlink="http://www.w3.org/1999/xlink" xml:space="preserve" xmlns:serif="http://www.serif.com/" style="fill-rule:evenodd;clip-rule:evenodd;stroke-linejoin:round;stroke-miterlimit:2;">
    <g>
        <path d="M200,16C301.552,16 384,98.448 384,200C384,301.552 301.552,384 200,384C98.448,384 16,301.552 16,200C16,98.448 98.448,16 200,16ZM200,46C115.005,46 46,115.005 46,200C46,284.995 115.005,354 200,354C284.995,354 354,284.995 354,200C354,115.005 284.995,46 200,46Z" style="fill:rgb(77,78,82);"/>
        <path d="M329.974,159.875C333.891,172.56 336,186.036 336,200C336,275.06 275.06,336 200,336C124.94,336 64,275.06 64,200C64,124.94 124.94,64 200,64C250.267,64 294.2,91.33 317.74,131.928L283.656,159.875L329.974,159.875ZM249.116,171.67L301.728,129.117L298.165,124.477C274.737,93.968 238.476,76.059 200.009,76L200.005,76C131.517,76 76,131.517 76,200C76,268.483 131.517,324 200,324C268.483,324 324,268.483 324,200L324,199.989C323.972,192.086 323.191,184.228 321.675,176.511L320.723,171.668L249.116,171.67ZM233.591,171.671L188.797,171.672L188.797,234.016L227.866,234.016C220.259,240.261 210.537,243.991 199.998,244C175.698,243.999 156,224.3 156,200C156,175.701 175.697,156.002 199.996,156C213.011,156.021 225.286,161.799 233.591,171.671ZM199.995,88C232.782,88.052 263.794,102.46 284.966,127.241C284.966,127.241 241.454,162.433 241.454,162.433C230.925,150.791 215.901,144.024 200.009,144L200.005,144C169.072,144 144,169.072 144,200C144,230.928 169.072,256 200,256L200.002,256C219.187,255.984 236.246,246.286 246.344,231.381L252.689,222.016L200.797,222.016L200.797,183.672L310.741,183.668C311.558,189.068 311.98,194.531 312,200.011C311.994,261.862 261.852,312 200,312C138.144,312 88,261.856 88,200C88,138.146 138.142,88.003 199.995,88Z" style="fill:rgb(77,78,82);"/>
    </g>
</svg>
