<svg height="894" viewBox="0 0 894 894" width="894" xmlns="http://www.w3.org/2000/svg"><path d="m424.384 186.016c-133.773 13.017-234.436 119.969-239.049 253.984-.855 24.836-11.407 24.704 79.178.984 86.788-22.726 78.218-19.759 81.021-28.048 24.513-72.486 116.618-96.745 173.113-45.596 6.694 6.061-9.445 9.519 148.199-31.76 148.989-39.014 141.154-36.82 141.154-39.517 0-3.084.319-2.98-109.32-35.518l-106.82-31.701-9.18-5.601c-46.091-28.121-106.318-42.285-158.296-37.227m204.616 267.018c-87.262 22.941-77.323 19.28-81.342 29.966-26.287 69.89-112.586 93.808-168.536 46.711-4.058-3.416-8.108-6.716-9-7.333-1.454-1.007-279.221 70.711-283.061 73.084-1.45.897-1.337 4.07.189 5.304.687.556 49.337 15.289 108.109 32.739 102.191 30.342 107.197 31.938 114.594 36.526 156.352 96.973 362.796 3.398 394.976-179.031 4.998-28.332 5.277-56.466.571-57.578-.55-.13-34.975 8.695-76.5 19.612" fill="#040404" fill-rule="evenodd"/></svg>