<!-- Generated by IcoMoon.io -->
<svg version="1.1" xmlns="http://www.w3.org/2000/svg" width="1200" height="1200" viewBox="0 0 1200 1200">
<title>wild-grass</title>
<path d="M600 1081.691h-600v-121.127h343.662q-30.986-126.761-123.943-219.718t-219.718-123.943q28.17-8.45 57.746-12.676t60.564-4.226q101.408 0 188.733 38.029t152.113 102.817 102.817 152.113 38.029 188.733zM1200 616.903q-28.17-8.45-57.746-12.676t-60.564-4.226q-132.395 0-242.254 64.788t-171.831 171.831q14.085 28.17 23.944 59.155t15.493 64.788q11.268 59.155 11.268 121.127h481.69v-121.127h-346.479q33.803-126.761 126.761-219.718t219.718-123.943zM819.718 540.846q33.803-92.958 97.184-170.422t147.887-130.986q-95.775 5.634-180.281 43.662t-147.887 102.817-100 150.704-36.62 184.507v0 0q87.323-115.493 219.718-180.281zM566.197 411.268q-39.437-98.591-112.676-174.648t-171.831-118.31q64.788 84.507 101.408 187.324t36.62 215.493q0 11.268-1.409 19.718t-1.409 16.902q19.718 11.268 38.029 23.944t35.211 26.761q11.268-53.521 29.577-102.817t46.479-94.366z"></path>
</svg>
