<?xml version="1.0" encoding="UTF-8" standalone="no"?>
<!DOCTYPE svg PUBLIC "-//W3C//DTD SVG 1.1//EN" "http://www.w3.org/Graphics/SVG/1.1/DTD/svg11.dtd">
<svg width="100%" height="100%" viewBox="0 0 596 626" version="1.1" xmlns="http://www.w3.org/2000/svg" xmlns:xlink="http://www.w3.org/1999/xlink" xml:space="preserve" xmlns:serif="http://www.serif.com/" style="fill-rule:evenodd;clip-rule:evenodd;stroke-linejoin:round;stroke-miterlimit:2;">
    <g transform="matrix(1,0,0,1,-3097.49,-1528.1)">
        <g transform="matrix(0.7056,0,0,0.868847,1492.18,1401.6)">
            <g transform="matrix(1.41723,0,0,1.15095,2228.07,91.0643)">
                <g transform="matrix(1,0,0,1,-3064.31,-1480.72)">
                    <path d="M3324.42,2088.09C3346.83,2094.92 3370.6,2098.6 3395.23,2098.6L3396.02,2098.6C3419.09,2098.52 3441.42,2095.22 3462.55,2089.12C3489.2,2100.69 3519.87,2107 3552.07,2108.93C3506.76,2137.09 3453.36,2153.41 3396.2,2153.6L3395.23,2153.6C3337.76,2153.6 3284.07,2137.28 3238.56,2109.04L3239.43,2108.93C3268.06,2105.24 3297.49,2098.68 3324.42,2088.09ZM3157.05,1902.87C3168.01,1958.65 3198.11,2007.6 3240.21,2042.6C3253.02,2053.25 3266.93,2062.6 3281.76,2070.47C3255.13,2077.33 3227.37,2080.78 3201.99,2082.3C3170.02,2054.99 3143.89,2021.02 3125.76,1982.56C3133.22,1956.48 3143.37,1928.43 3157.05,1902.87ZM3636.44,1883.27C3652.26,1909.68 3662.33,1941.97 3667.58,1976.28C3649.97,2015.99 3623.94,2051.14 3591.75,2079.46C3561.54,2081.08 3531.87,2079.06 3505.1,2072.33C3536.27,2056.47 3563.57,2034.07 3585.17,2006.95L3617.88,2031.03C3620.18,2032.84 3623.52,2032.54 3625.45,2030.35C3627.3,2028.07 3627,2024.69 3624.77,2022.78L3594.82,1993.98C3617.11,1961.86 3631.84,1924.09 3636.44,1883.27ZM3360.65,1560.11C3356.14,1568.57 3348.86,1575.55 3339.74,1579.76C3339.39,1579.92 3339.05,1580.09 3338.7,1580.27C3315.37,1592.15 3299.19,1608.25 3288.05,1625.74C3283.05,1625.8 3272.15,1627.11 3260.37,1640.42C3252.61,1649.18 3245.98,1658.72 3240.54,1668.84C3195.41,1706.22 3164,1759.63 3155.08,1820.31C3153.46,1831.36 3152.58,1842.64 3152.5,1854.1C3134.11,1878.93 3119.74,1908.21 3108.87,1937.6C3101.82,1912.89 3097.89,1886.86 3097.52,1859.98C3097.5,1858.62 3097.49,1857.24 3097.49,1855.86C3097.49,1853.3 3097.52,1850.74 3097.59,1848.18C3101.37,1699.03 3215.08,1576.98 3360.65,1560.11ZM3466.09,1566.62C3592.13,1597.43 3686.81,1708.58 3692.68,1842.6C3692.88,1847.01 3692.97,1851.42 3692.97,1855.86C3692.97,1878.74 3690.39,1901.02 3685.5,1922.4C3674.87,1888.25 3658.91,1857.79 3637.07,1834.77C3633.33,1791.39 3618.16,1751.26 3594.6,1717.42C3589.03,1709.41 3582.98,1701.76 3576.52,1694.5C3576.26,1694.21 3576,1693.92 3575.75,1693.64C3572.58,1690.12 3569.32,1686.69 3565.96,1683.37C3565.63,1683.04 3565.3,1682.72 3564.96,1682.39L3564.25,1681.69L3563.45,1680.92C3562.87,1680.36 3562.29,1679.81 3561.71,1679.26C3561.41,1678.98 3561.1,1678.69 3560.79,1678.4C3560.44,1678.08 3560.09,1677.75 3559.74,1677.43C3545.91,1643.91 3521.71,1615.41 3490.45,1596.11C3484.26,1592.29 3477.16,1590.97 3470.4,1591.95C3470.02,1583.26 3468.55,1574.76 3466.09,1566.62ZM3479.08,1628.01C3477.82,1625.77 3476.35,1623.64 3474.68,1621.63C3479.88,1624.84 3484.84,1628.36 3489.54,1632.15L3489.3,1632.05C3485.93,1630.63 3482.52,1629.28 3479.08,1628.01ZM3393.43,1558.12C3394.04,1558.12 3394.63,1558.12 3395.23,1558.12C3407.3,1558.12 3419.21,1558.84 3430.92,1560.24C3437.1,1571.13 3440.53,1583.59 3440.5,1596.56C3440.5,1599.73 3439.89,1605.98 3439.89,1605.98C3430.94,1606.21 3422.64,1609.15 3415.81,1613.98C3409.02,1613.41 3402.16,1613.12 3395.23,1613.12C3372.72,1613.12 3350.91,1616.19 3330.22,1621.94C3336.49,1616.39 3343.8,1611.34 3352.31,1607C3373,1597.46 3387.9,1579.32 3393.43,1558.12Z"/>
                </g>
                <g transform="matrix(1.28465,0,0,1.5369,-4035.49,-2490.96)">
                    <path d="M3413.06,1883.32C3413.06,1877.25 3407.16,1872.32 3399.89,1872.32C3392.63,1872.32 3386.73,1877.25 3386.73,1883.32L3386.73,1888.59C3386.73,1894.67 3392.63,1899.6 3399.89,1899.6C3407.16,1899.6 3413.06,1894.67 3413.06,1888.59L3413.06,1883.32Z"/>
                </g>
                <g transform="matrix(1,0,0,1,-3064.31,-1480.72)">
                    <path d="M3523.6,1816.21C3531.71,1816.24 3539.82,1817.02 3547.79,1818.57L3548.44,1818.7C3549.92,1819 3551.4,1819.32 3552.88,1819.67L3552.95,1819.68L3553.33,1819.78C3554.67,1820.1 3556,1820.44 3557.32,1820.8C3558.42,1821.1 3559.51,1821.42 3560.6,1821.75C3560.81,1821.82 3561.02,1821.88 3561.24,1821.95L3561.87,1822.14C3571.39,1825.15 3580.63,1829.29 3589.36,1834.56C3591.78,1836.02 3594.15,1837.57 3596.49,1839.2C3598.76,1840.8 3600.99,1842.47 3603.18,1844.22C3603.63,1844.58 3604.07,1844.94 3604.51,1845.31C3604.78,1845.53 3605.05,1845.75 3605.32,1845.98C3607.95,1848.2 3610.5,1850.53 3612.96,1852.97L3613.25,1853.25L3613.65,1853.65C3614.96,1854.97 3616.25,1856.32 3617.52,1857.7C3618.45,1858.72 3619.37,1859.75 3620.28,1860.79C3622.31,1863.14 3624.27,1865.56 3626.17,1868.06L3626.45,1868.43L3626.96,1869.11L3627.47,1869.79L3627.81,1870.25C3633.73,1878.33 3639.01,1887.14 3643.66,1896.53L3644.06,1897.33C3644.71,1898.66 3645.35,1900.01 3645.98,1901.36L3646.36,1902.18C3668.08,1949.53 3674.93,2010.35 3670.96,2067.53C3638.99,2075.33 3605.2,2079.95 3572.63,2079.99C3521.84,2080.04 3474.06,2068.92 3440.93,2041.33C3395.76,2003.4 3382.5,1938.85 3409.05,1886.18C3410.04,1884.21 3411.1,1882.25 3412.23,1880.35L3444.03,1903.52L3462.21,2011.8C3462.59,2013.75 3464.31,2015.17 3466.3,2015.17C3468.57,2015.17 3470.44,2013.31 3470.46,2011.04L3469.48,1922.15L3522.48,1960.99L3536.34,2029.74C3536.39,2030.32 3536.57,2030.85 3536.83,2031.33L3536.88,2031.4L3536.92,2031.48C3537.39,2032.27 3538.12,2032.89 3538.98,2033.23C3539.47,2033.43 3540.01,2033.54 3540.56,2033.54C3540.67,2033.54 3540.77,2033.54 3540.88,2033.53C3542.98,2033.34 3544.61,2031.56 3544.61,2029.46C3544.61,2029.32 3544.6,2029.19 3544.59,2029.06L3545.88,1978.03L3617.88,2031.03C3618.67,2031.65 3619.58,2032.03 3620.52,2032.16L3620.65,2032.17C3622.4,2032.38 3624.22,2031.75 3625.45,2030.35C3627.3,2028.07 3627,2024.69 3624.77,2022.78L3560.41,1960.92L3610.46,1950.85C3612.73,1950.61 3614.43,1948.58 3614.25,1946.3C3614.19,1945.65 3613.98,1945.05 3613.66,1944.52L3613.65,1944.51L3613.62,1944.46C3612.89,1943.32 3611.61,1942.57 3610.18,1942.57C3610.05,1942.57 3609.91,1942.58 3609.78,1942.59L3539.59,1940.85L3492.12,1895.42L3580.25,1879.97C3582.51,1879.74 3584.18,1877.69 3583.96,1875.43C3583.89,1874.41 3583.44,1873.5 3582.75,1872.83C3582.64,1872.73 3582.53,1872.63 3582.41,1872.53C3582.36,1872.5 3582.31,1872.46 3582.26,1872.43C3582.14,1872.34 3582.02,1872.26 3581.89,1872.19C3581.64,1872.05 3581.37,1871.94 3581.09,1871.86C3580.73,1871.75 3580.35,1871.69 3579.96,1871.69C3579.8,1871.69 3579.65,1871.7 3579.49,1871.72L3470.08,1872.86L3441.76,1845.6C3443.43,1844.16 3445.17,1842.8 3446.91,1841.51C3469.44,1824.67 3496.21,1816.28 3522.94,1816.21L3523.6,1816.21Z" style="fill-rule:nonzero;"/>
                </g>
                <g transform="matrix(1,0,0,1,-3064.31,-1480.72)">
                    <path d="M3283.14,1814.2C3318.93,1814.48 3354.49,1830.14 3378.66,1859.99C3421.33,1912.68 3413.4,1990.9 3361.09,2033.26C3309.79,2075.19 3224.87,2083.29 3167.37,2083.34L3166.28,2083.34C3131.2,2083.32 3106.6,2080.32 3106.6,2080.32C3106.6,2080.32 3122.1,1908.72 3205.52,1841.16C3227.99,1822.95 3255.24,1814.14 3282.4,1814.19L3283.14,1814.2ZM3290.5,1856.5C3275.05,1856.47 3259.54,1861.48 3246.75,1871.84C3232.71,1883.21 3223.65,1899.63 3221.49,1917.63L3221.9,1917.2C3223.95,1915.03 3226.15,1913 3228.47,1911.12C3241.16,1900.85 3256.54,1895.87 3271.87,1895.9L3272.29,1895.9C3292.49,1896.06 3312.56,1904.91 3326.21,1921.75C3338.64,1937.1 3344.03,1956.99 3341.04,1976.43L3341.28,1976.17C3346.5,1970.78 3350.78,1964.56 3353.95,1957.74C3365.92,1933.29 3362.53,1903.85 3345.28,1882.56C3331.53,1865.58 3311.29,1856.66 3290.92,1856.5L3290.5,1856.5Z" style="fill-rule:nonzero;"/>
                </g>
                <g transform="matrix(1,0,0,1,-3064.31,-1480.72)">
                    <path d="M3396.53,1730.14C3396.53,1730.14 3396.06,1730.14 3396.06,1730.14C3374.66,1730.14 3356.14,1743.27 3348.41,1761.71C3345.94,1767.62 3344.57,1774.06 3344.57,1780.8C3344.57,1786.96 3349.01,1832.14 3403.28,1844.98C3448.33,1855.76 3508.6,1829.06 3519.47,1819.31L3519.16,1819.78C3492.49,1860.2 3446.71,1884.67 3397.71,1884.67C3318.31,1884.67 3252.96,1820.41 3252.9,1742.29C3252.9,1742.04 3252.89,1741.79 3252.89,1741.54C3252.25,1711.76 3262.92,1682.78 3282.82,1660.31C3285.64,1657.13 3287.45,1655.71 3288.54,1655.73L3288.59,1655.73C3292.16,1655.91 3287.76,1672.02 3286.52,1691.28C3286.29,1694.84 3286.17,1698.5 3286.23,1702.18C3286.31,1706.93 3286.68,1711.72 3287.49,1716.38C3288.86,1724.25 3291.5,1731.77 3296.13,1738.1C3296.13,1738.1 3293.51,1725.02 3294.18,1706.66L3294.21,1706.08C3295.44,1675.5 3305.86,1630.65 3352.31,1607C3378.76,1594.8 3395.74,1568.56 3395.8,1539.83C3395.79,1538.21 3395.72,1536.6 3395.6,1534.99L3395.58,1534.68L3395.57,1534.62C3395.4,1532.49 3395.14,1530.36 3394.78,1528.24L3394.76,1528.1C3402.03,1531.18 3408.64,1535.3 3414.43,1540.25C3430.72,1554.18 3440.54,1574.63 3440.5,1596.56C3440.5,1599.73 3439.89,1605.98 3439.89,1605.98C3417.3,1606.56 3398.88,1624.39 3397.62,1646.35C3397.58,1647.14 3397.56,1647.94 3397.56,1648.75C3397.56,1652.11 3397.96,1655.39 3398.72,1658.54C3403.27,1677.36 3420.61,1691.53 3441.04,1691.53L3441.32,1691.53C3465.05,1691.38 3484.53,1672.13 3484.53,1648.75C3484.53,1647.71 3484.49,1646.68 3484.41,1645.65C3484.37,1644.99 3484.3,1644.33 3484.22,1643.67C3484.13,1642.89 3484.01,1642.12 3483.87,1641.35C3483.57,1639.67 3483.18,1638.02 3482.68,1636.4C3481.04,1631.05 3478.34,1626.02 3474.68,1621.63C3502.51,1638.82 3523.6,1664.8 3534.48,1695.29L3534.61,1695.65C3534.9,1697.14 3535.16,1698.64 3535.39,1700.13C3535.96,1703.78 3536.34,1707.45 3536.54,1711.13C3536.65,1713.19 3536.7,1715.25 3536.7,1717.31C3536.65,1779.85 3484.41,1831.32 3420.85,1831.46C3416.02,1831.45 3411.2,1831.14 3406.41,1830.52C3430.49,1825.89 3448.02,1804.94 3448.02,1780.8C3448.02,1779.82 3447.99,1778.85 3447.93,1777.89C3447.05,1762.85 3439.37,1749.48 3427.9,1740.74C3419.19,1734.11 3408.29,1730.14 3396.53,1730.14Z" style="fill-rule:nonzero;"/>
                </g>
            </g>
        </g>
    </g>
</svg>
