<?xml version="1.0" encoding="UTF-8" standalone="no"?>
<!DOCTYPE svg PUBLIC "-//W3C//DTD SVG 1.1//EN" "http://www.w3.org/Graphics/SVG/1.1/DTD/svg11.dtd">
<svg width="100%" height="100%" viewBox="0 0 656 686" version="1.1" xmlns="http://www.w3.org/2000/svg" xmlns:xlink="http://www.w3.org/1999/xlink" xml:space="preserve" xmlns:serif="http://www.serif.com/" style="fill-rule:evenodd;clip-rule:evenodd;stroke-linejoin:round;stroke-miterlimit:2;">
    <g transform="matrix(1,0,0,1,-3054.34,-2560.04)">
        <g transform="matrix(0.7056,0,0,0.868847,1479.03,2463.54)">
            <g transform="matrix(1.41723,0,0,1.15095,2228.07,91.0643)">
                <g transform="matrix(0.959464,0,0,0.959464,13.4142,27.4459)">
                    <path d="M330.921,52.059C159.651,52.059 20.601,191.109 20.601,362.38C20.601,533.65 159.651,672.7 330.921,672.7C502.191,672.7 641.241,533.65 641.241,362.38C641.241,191.109 502.191,52.059 330.921,52.059ZM330.921,109.383C470.554,109.383 583.918,222.747 583.918,362.38C583.918,502.012 470.554,615.376 330.921,615.376C191.288,615.376 77.924,502.012 77.924,362.38C77.924,222.747 191.288,109.383 330.921,109.383Z" style="fill:rgb(240,223,97);"/>
                    <path d="M330.921,20.792C142.394,20.792 -10.667,173.852 -10.667,362.38C-10.667,550.907 142.394,703.967 330.921,703.967C519.448,703.967 672.509,550.907 672.509,362.38C672.509,173.852 519.448,20.792 330.921,20.792ZM330.921,52.059C159.651,52.059 20.601,191.109 20.601,362.38C20.601,533.65 159.651,672.7 330.921,672.7C502.191,672.7 641.241,533.65 641.241,362.38C641.241,191.109 502.191,52.059 330.921,52.059ZM330.921,109.383C470.554,109.383 583.918,222.747 583.918,362.38C583.918,502.012 470.554,615.376 330.921,615.376C191.288,615.376 77.924,502.012 77.924,362.38C77.924,222.747 191.288,109.383 330.921,109.383ZM330.921,140.65C453.297,140.65 552.65,240.004 552.65,362.38C552.65,484.755 453.297,584.109 330.921,584.109C208.545,584.109 109.192,484.755 109.192,362.38C109.192,240.004 208.545,140.65 330.921,140.65Z"/>
                </g>
                <g transform="matrix(1,0,0,1,0.504315,25.2623)">
                    <g transform="matrix(1,0,0,1,-0.504315,-29.8722)">
                        <path d="M376.619,565.215C331.449,527.284 318.187,462.736 344.742,410.069C345.726,408.1 346.786,406.131 347.922,404.238L379.724,427.408L397.896,535.685C398.273,537.636 399.997,539.059 401.985,539.059C404.257,539.059 406.131,537.2 406.149,534.928L405.165,446.035L458.168,484.878L472.024,553.63C472.262,555.9 474.292,557.591 476.567,557.416C478.667,557.23 480.296,555.451 480.296,553.343C480.296,553.211 480.29,553.08 480.277,552.948L481.564,501.915L553.572,554.917C555.863,556.727 559.213,556.425 561.144,554.236C562.993,551.958 562.688,548.575 560.462,546.664L496.102,484.802L546.152,474.732C548.422,474.494 550.113,472.464 549.938,470.189C549.752,468.089 547.972,466.459 545.865,466.459C545.733,466.459 545.601,466.466 545.47,466.479L475.28,464.737L427.805,419.306L515.94,403.86C518.2,403.623 519.869,401.578 519.651,399.317C519.506,397.224 517.745,395.58 515.647,395.58C515.492,395.58 515.337,395.589 515.183,395.607L405.771,396.742L377.452,369.484C379.118,368.045 380.86,366.682 382.601,365.395C429.876,330.061 495.795,331.92 541.003,369.862C594.914,415.293 612.481,507.291 606.65,591.413C524.799,611.403 430.985,610.494 376.619,565.215Z" style="fill:rgb(240,223,97);fill-rule:nonzero;"/>
                        <path d="M347.842,374.245C345.88,374.243 343.906,374.442 341.951,374.839C333.699,376.515 326.53,381.582 322.197,388.804C320.678,391.335 319.255,393.965 317.937,396.598C285.161,461.643 301.546,541.348 357.327,588.189C357.358,588.215 357.389,588.241 357.42,588.267C418.092,638.798 522.422,642.865 613.768,620.557C626.452,617.459 635.676,606.513 636.579,593.487C643.09,499.531 620.548,397.663 560.335,346.922C560.32,346.909 560.304,346.896 560.289,346.883C504.47,300.035 423.086,297.725 364.7,341.321C362.379,343.039 360.064,344.862 357.844,346.779C351.459,352.293 347.691,360.241 347.463,368.674C347.412,370.553 347.538,372.418 347.842,374.245ZM376.619,565.215C331.449,527.284 318.187,462.736 344.742,410.069C345.726,408.1 346.786,406.131 347.922,404.238L379.724,427.408L397.896,535.685C398.273,537.636 399.997,539.059 401.985,539.059C404.257,539.059 406.131,537.2 406.149,534.928L405.165,446.035L458.168,484.878L472.024,553.63C472.262,555.9 474.292,557.591 476.567,557.416C478.667,557.23 480.296,555.451 480.296,553.343C480.296,553.211 480.29,553.08 480.277,552.948L481.564,501.915L553.572,554.917C555.863,556.727 559.213,556.425 561.144,554.236C562.993,551.958 562.688,548.575 560.462,546.664L496.102,484.802L546.152,474.732C548.422,474.494 550.113,472.464 549.938,470.189C549.752,468.089 547.972,466.459 545.865,466.459C545.733,466.459 545.601,466.466 545.47,466.479L475.28,464.737L427.805,419.306L515.94,403.86C518.2,403.623 519.869,401.578 519.651,399.317C519.506,397.224 517.745,395.58 515.647,395.58C515.492,395.58 515.337,395.589 515.183,395.607L405.771,396.742L377.452,369.484C379.118,368.045 380.86,366.682 382.601,365.395C429.876,330.061 495.795,331.92 541.003,369.862C594.914,415.293 612.481,507.291 606.65,591.413C524.799,611.403 430.985,610.494 376.619,565.215Z"/>
                    </g>
                    <g transform="matrix(1,-5.55112e-17,0,1,-0.504315,-29.8722)">
                        <path d="M42.284,604.205C42.284,604.205 57.783,432.603 141.205,365.043C193.512,322.682 271.67,331.183 314.343,383.876C357.017,436.568 349.09,514.786 296.782,557.148C213.661,625.078 42.284,604.205 42.284,604.205ZM289.635,481.63C301.606,457.171 298.215,427.738 280.973,406.448C256.687,376.46 212.206,371.622 182.438,395.73C168.4,407.099 159.34,423.522 157.177,441.52C159.352,439.191 161.686,437.015 164.162,435.01C193.689,411.098 237.807,415.896 261.895,445.64C274.324,460.988 279.718,480.874 276.725,500.315C282.055,494.868 286.42,488.551 289.635,481.63Z" style="fill:rgb(240,223,97);fill-rule:nonzero;"/>
                        <path d="M12.405,601.507C10.948,617.646 22.57,632.026 38.657,633.985C38.657,633.985 103.918,641.975 175.119,632.813C225.503,626.329 278.368,610.914 315.714,580.42C380.718,527.73 390.712,430.507 337.657,364.995C284.588,299.466 187.374,289.049 122.324,341.73C84.878,372.056 58.862,420.582 42.041,468.473C18.266,536.168 12.405,601.507 12.405,601.507ZM42.284,604.205C42.284,604.205 57.783,432.603 141.205,365.043C193.512,322.682 271.67,331.183 314.343,383.876C357.017,436.568 349.09,514.786 296.782,557.148C213.661,625.078 42.284,604.205 42.284,604.205ZM289.635,481.63C301.606,457.171 298.215,427.738 280.973,406.448C256.687,376.46 212.206,371.622 182.438,395.73C168.4,407.099 159.34,423.522 157.177,441.52C159.352,439.191 161.686,437.015 164.162,435.01C193.689,411.098 237.807,415.896 261.895,445.64C274.324,460.988 279.718,480.874 276.725,500.315C282.055,494.868 286.42,488.551 289.635,481.63Z"/>
                    </g>
                    <g transform="matrix(0.966382,0,0,0.950828,10.6054,-18.5493)">
                        <path d="M331.794,255.256C302.566,255.256 278.515,279.307 278.515,308.535C278.515,315.015 283.105,362.534 339.264,376.034C385.883,387.374 448.252,359.294 459.502,349.035C431.949,391.835 384.407,417.772 333.504,417.772C251.343,417.772 183.718,350.198 183.657,268.036C182.794,236.44 193.851,205.648 214.617,181.818C235.382,157.988 203.007,228.347 228.386,263.626C228.386,263.626 209.127,165.798 286.525,125.749C313.888,112.916 331.463,85.323 331.524,55.1C331.494,50.968 331.133,46.845 330.444,42.771C359.158,55.106 377.839,83.518 377.783,114.769C377.783,118.099 377.153,124.669 377.153,124.669C352.924,125.308 333.341,145.415 333.341,169.652C333.341,194.338 353.655,214.652 378.341,214.652C403.026,214.652 423.34,194.338 423.34,169.652C423.34,159.259 419.739,149.179 413.153,141.139C442.063,159.284 463.942,186.752 475.162,218.987C476.614,226.49 477.338,234.115 477.321,241.757C477.272,307.532 423.219,361.667 357.444,361.814C352.448,361.807 347.457,361.476 342.504,360.824C367.418,355.954 385.561,333.921 385.561,308.535C385.561,279.307 361.51,255.256 332.282,255.256L331.794,255.256Z" style="fill:rgb(240,223,97);fill-rule:nonzero;"/>
                        <path d="M220.027,145.458C214.854,145.518 203.575,146.901 191.377,160.899C165.454,190.647 151.638,229.07 152.615,268.508C152.914,367.608 234.323,449.324 333.504,449.324C394.919,449.324 452.237,417.949 485.479,366.309C493.488,353.869 491.813,337.575 481.804,327.087C498.52,302.719 508.338,273.299 508.365,241.797C508.384,232.097 507.465,222.417 505.621,212.894C505.33,211.39 504.931,209.91 504.428,208.465C490.859,169.48 464.427,136.238 429.464,114.293C423.064,110.277 415.715,108.883 408.715,109.916C406.931,68.012 381.313,30.369 342.53,13.708C332.077,9.218 320.046,10.883 311.155,18.05C302.263,25.217 297.928,36.744 299.849,48.112C300.24,50.429 300.451,52.774 300.48,55.124C300.382,73.159 289.793,89.467 273.518,97.101C273.156,97.271 272.796,97.448 272.441,97.632C248.294,110.126 231.552,127.062 220.027,145.458ZM331.794,255.256C302.566,255.256 278.515,279.307 278.515,308.535C278.515,315.015 283.105,362.534 339.264,376.034C385.883,387.374 448.252,359.294 459.502,349.035C431.949,391.835 384.407,417.772 333.504,417.772C251.343,417.772 183.718,350.198 183.657,268.036C182.794,236.44 193.851,205.648 214.617,181.818C235.382,157.988 203.007,228.347 228.386,263.626C228.386,263.626 209.127,165.798 286.525,125.749C313.888,112.916 331.463,85.323 331.524,55.1C331.494,50.968 331.133,46.845 330.444,42.771C359.158,55.106 377.839,83.518 377.783,114.769C377.783,118.099 377.153,124.669 377.153,124.669C352.924,125.308 333.341,145.415 333.341,169.652C333.341,194.338 353.655,214.652 378.341,214.652C403.026,214.652 423.34,194.338 423.34,169.652C423.34,159.259 419.739,149.179 413.153,141.139C442.063,159.284 463.942,186.752 475.162,218.987C476.614,226.49 477.338,234.115 477.321,241.757C477.272,307.532 423.219,361.667 357.444,361.814C352.448,361.807 347.457,361.476 342.504,360.824C367.418,355.954 385.561,333.921 385.561,308.535C385.561,279.307 361.51,255.256 332.282,255.256L331.794,255.256ZM332.282,286.808L331.794,286.808C319.733,286.808 309.559,296.474 309.559,308.535C309.559,311.168 311.873,324.629 324.666,335.007C328.159,332.502 332.211,330.707 336.64,329.841C346.872,327.841 354.517,318.96 354.517,308.535C354.517,296.474 344.344,286.808 332.282,286.808ZM385.32,155.109C382.962,155.766 380.497,156.143 377.959,156.21C370.586,156.404 364.385,162.276 364.385,169.652C364.385,177.172 370.821,183.1 378.341,183.1C385.861,183.1 392.296,177.172 392.296,169.652C392.296,166.614 391.22,163.676 389.294,161.325C387.704,159.383 386.377,157.296 385.32,155.109Z"/>
                    </g>
                </g>
            </g>
        </g>
    </g>
</svg>
