<svg viewBox="0 0 76.71 76.71" xmlns="http://www.w3.org/2000/svg"><rect fill="#6dc8eb" height="76.71" rx="6.57" width="76.71"/><g fill="#fff"><path d="m33.44 6.82h9.83v9.83h-9.83z" transform="matrix(.70710678 -.70710678 .70710678 .70710678 2.930072 30.559819)"/><path d="m11.49 48.24h9.83v9.83h-9.83z"/><path d="m33.44 60.05h9.83v9.83h-9.83z" transform="matrix(.70710678 -.70710678 .70710678 .70710678 -34.710222 46.15011)"/><path d="m55.38 18.75v9.77l-17.03-9.83-17.03 9.83v-9.77h-9.83v9.83h9.83v19.6l17.03 9.83 17.03-9.83v-19.6h9.83v-9.83zm-24.24 15.57v9.62h-5.11v-12.6h.05l10.86-6.27 2.55 4.42-8.36 4.83zm24.24 13.92h9.83v9.83h-9.83z"/></g></svg>