<svg height="160" viewBox="0 0 16 16" width="160" xmlns="http://www.w3.org/2000/svg"><path d="m0 4a4 4 0 0 1 4-4h8a4 4 0 0 1 4 4v8a4 4 0 0 1 -4 4h-8a4 4 0 0 1 -4-4z" fill="#32de84"/><path d="m2.84 10.84c-.41 0-.84.34-.84.93 0 .54.38.92.84.92.39 0 .56-.26.56-.26v.11c0 .06.05.12.11.12h.28v-1.78h-.39v.23s-.17-.27-.56-.27zm.07.37c.35 0 .52.3.52.56 0 .29-.2.57-.52.57-.25 0-.51-.22-.51-.57 0-.33.22-.56.51-.56zm1.43 1.45a.11.11 0 0 1 -.12-.12v-1.66h.4v.22a.6.6 0 0 1 .52-.26c.44 0 .67.35.67.68v1.14h-.27a.12.12 0 0 1 -.12-.12v-.93c0-.18-.11-.4-.37-.4-.27 0-.43.26-.43.5v.95zm2.61-1.82c-.41 0-.84.34-.84.93 0 .54.37.92.84.92.39 0 .56-.26.56-.26v.11c0 .06.05.12.11.12h.28v-2.67h-.4v1.12s-.16-.27-.55-.27zm.07.37c.34 0 .52.3.52.56 0 .29-.21.57-.52.57-.25 0-.51-.22-.51-.57 0-.33.22-.56.51-.56zm1.43 1.45a.11.11 0 0 1 -.12-.12v-1.66h.4v.3a.48.48 0 0 1 .47-.32.8.8 0 0 1 .13.02v.4s-.08-.03-.18-.03c-.28 0-.43.27-.43.51v.9zm3.26 0a.11.11 0 0 1 -.11-.12v-1.66h.39v1.78zm1.43-1.82c-.42 0-.85.34-.85.93 0 .54.38.92.85.92.38 0 .56-.26.56-.26v.11c0 .06.05.12.1.12h.29v-2.67h-.4v1.12s-.17-.27-.55-.27zm.07.37c.34 0 .52.3.52.56 0 .29-.21.57-.52.57-.26 0-.52-.22-.52-.57 0-.33.23-.56.52-.56zm-1.41-.71c.13 0 .25-.12.25-.26a.26.26 0 0 0 -.26-.27.26.26 0 0 0 -.26.27c0 .14.12.26.26.26zm-1.43.34a.9.9 0 0 0 -.92.93c0 .54.41.92.92.92.62 0 .92-.5.92-.92 0-.5-.39-.93-.92-.93zm0 .37c.3 0 .52.25.52.56s-.23.56-.52.56a.54.54 0 0 1 -.52-.56c0-.34.24-.56.52-.56zm.63-7.14 1-1.76a.2.2 0 0 0 -.08-.28.2.2 0 0 0 -.27.07l-1.02 1.78a6.12 6.12 0 0 0 -5.17 0l-1.01-1.78a.2.2 0 0 0 -.28-.07.2.2 0 0 0 -.07.28l1 1.76a6.07 6.07 0 0 0 -3.1 4.8h12.1a6.07 6.07 0 0 0 -3.1-4.8zm-5.74 3.08a.51.51 0 0 1 -.5-.52c0-.28.22-.51.5-.51s.51.23.51.51a.5.5 0 0 1 -.5.52zm5.55 0a.51.51 0 0 1 -.5-.52c0-.28.22-.51.5-.51s.5.23.5.51a.5.5 0 0 1 -.5.52z" fill="#fff"/></svg>