<svg height="160" viewBox="0 0 16 16" width="160" xmlns="http://www.w3.org/2000/svg"><path d="m0 4c0-2.20914 1.79086-4 4-4h8c2.2091 0 4 1.79086 4 4v8c0 2.2091-1.7909 4-4 4h-8c-2.20914 0-4-1.7909-4-4z" fill="#564f57"/><path d="m4.5 1.875c-.34518 0-.625.27982-.625.625v11c0 .3452.27982.625.625.625h6c.8975 0 1.625-.7275 1.625-1.625v-10c0-.34518-.2798-.625-.625-.625z" fill="#d3ceca" stroke="#fff" stroke-width=".25"/><circle cx="9.5" cy="11.5" fill="#8b2e5d" r=".5"/><circle cx="9.5" cy="11.5" fill="none" r=".625" stroke="#fff" stroke-opacity=".3" stroke-width=".25"/><circle cx="10.5" cy="10.5" fill="#8b2e5d" r=".5"/><circle cx="10.5" cy="10.5" fill="none" r=".625" stroke="#fff" stroke-opacity=".3" stroke-width=".25"/><path clip-rule="evenodd" d="m5.9 12c.05523 0 .1.0448.1.1v.8c0 .0552.04477.1.1.1h.8c.05523 0 .1-.0448.1-.1v-.8c0-.0552.04477-.1.1-.1h.8c.05523 0 .1-.0448.1-.1v-.8c0-.0552-.04477-.1-.1-.1h-.8c-.05523 0-.1-.0448-.1-.1v-.8c0-.0552-.04477-.1-.1-.1h-.8c-.05523 0-.1.0448-.1.1v.8c0 .0552-.04477.1-.1.1h-.8c-.05523 0-.1.0448-.1.1v.8c0 .0552.04477.1.1.1z" fill="#181c25" fill-rule="evenodd"/><path d="m6.125 12.9v-.8h-.25v.8zm.775-.025h-.8v.25h.8zm-.025-.775v.8h.25v-.8zm1.025-.225h-.8v.25h.8zm-.025-.775v.8h.25v-.8zm-.775.025h.8v-.25h-.8zm-.225-1.025v.8h.25v-.8zm-.775.025h.8v-.25h-.8zm.025.775v-.8h-.25v.8zm-1.025.225h.8v-.25h-.8zm.025.775v-.8h-.25v.8zm.775-.025h-.8v.25h.8zm-1.025.025c0 .1243.10074.225.225.225v-.25c.01381 0 .025.0112.025.025zm.225-1.025c-.12426 0-.225.1007-.225.225h.25c0 .0138-.01119.025-.025.025zm.775.025c0-.0138.01119-.025.025-.025v.25c.12426 0 .225-.1007.225-.225zm.225-1.025c-.12426 0-.225.10074-.225.225h.25c0 .0138-.01119.025-.025.025zm1.025.225c0-.12426-.10074-.225-.225-.225v.25c-.01381 0-.025-.0112-.025-.025zm-.025.775c.01381 0 .025.0112.025.025h-.25c0 .1243.10074.225.225.225zm1.025.225c0-.1243-.10074-.225-.225-.225v.25c-.01381 0-.025-.0112-.025-.025zm-.225 1.025c.12426 0 .225-.1007.225-.225h-.25c0-.0138.01119-.025.025-.025zm-.775-.025c0 .0138-.01119.025-.025.025v-.25c-.12426 0-.225.1007-.225.225zm-.225 1.025c.12426 0 .225-.1007.225-.225h-.25c0-.0138.01119-.025.025-.025zm-.775-1.025c0-.1243-.10074-.225-.225-.225v.25c-.01381 0-.025-.0112-.025-.025zm-.25.8c0 .1243.10074.225.225.225v-.25c.01381 0 .025.0112.025.025z" fill="#fff" fill-opacity=".3"/><path d="m5 3.25c0-.13807.11193-.25.25-.25h5.5c.1381 0 .25.11193.25.25v5.5c0 .13807-.1119.25-.25.25h-5.5c-.13807 0-.25-.11193-.25-.25z" fill="#8c878d"/><path d="m6 4.25c0-.13807.11193-.25.25-.25h3.5c.13807 0 .25.11193.25.25v3.5c0 .13807-.11193.25-.25.25h-3.5c-.13807 0-.25-.11193-.25-.25z" fill="#8ea652"/><g fill="none"><path d="m6.25 3.875c-.20711 0-.375.16789-.375.375v3.5c0 .20711.16789.375.375.375h3.5c.20711 0 .375-.16789.375-.375v-3.5c0-.20711-.16789-.375-.375-.375z" stroke="#1b1c1d" stroke-opacity=".2" stroke-width=".25"/><path d="m9 5.35355-1.76777 1.76777" stroke="#fff" stroke-linecap="round" stroke-width=".5"/><path d="m8 5.25-.45711.45711" stroke="#fff" stroke-linecap="round" stroke-width=".353553"/></g></svg>