<svg fill="none" height="160" viewBox="0 0 16 16" width="160" xmlns="http://www.w3.org/2000/svg"><path d="m0 4a4 4 0 0 1 4-4h8a4 4 0 0 1 4 4v8a4 4 0 0 1 -4 4h-8a4 4 0 0 1 -4-4z" fill="#d2bfe1"/><path d="m.88 9.97c0 .52.34.97.85 1.07a33.22 33.22 0 0 0 12.54 0c.5-.1.86-.55.86-1.07v-4.41c0-.53-.37-1-.9-1.08-1.23-.22-3.73-.6-6.23-.6s-5 .38-6.23.6c-.53.09-.9.55-.9 1.08v4.41z" fill="#574181" stroke="#fff" stroke-width=".25"/><circle cx="12.5" cy="8.5" fill="#f6f6f8" r=".5"/><circle cx="12.5" cy="8.5" fill="none" r=".63" stroke="#000" stroke-opacity=".3" stroke-width=".25"/><circle cx="13.5" cy="7.5" fill="#f6f6f8" r=".5"/><circle cx="13.5" cy="7.5" fill="none" r=".63" stroke="#000" stroke-opacity=".3" stroke-width=".25"/><path clip-rule="evenodd" d="m2.6 8.33c.04 0 .07.03.07.07v.53c0 .04.03.07.06.07h.54c.03 0 .06-.03.06-.07v-.53c0-.04.03-.07.07-.07h.53c.04 0 .07-.03.07-.06v-.54a.07.07 0 0 0 -.07-.06h-.53a.07.07 0 0 1 -.07-.07v-.53a.07.07 0 0 0 -.06-.07h-.54a.07.07 0 0 0 -.06.07v.53c0 .04-.03.07-.07.07h-.53a.07.07 0 0 0 -.07.06v.54c0 .03.03.06.07.06z" fill="#fff" fill-rule="evenodd"/><path d="m2.75 8.93v-.53h-.17v.53zm.52-.01h-.54v.16h.54zm-.02-.52v.53h.17v-.53zm.68-.15h-.53v.17h.53zm-.01-.52v.54h.16v-.54zm-.52.02h.53v-.17h-.53zm-.15-.68v.53h.17v-.53zm-.52.01h.54v-.16h-.54zm.02.52v-.53h-.17v.53zm-.68.15h.53v-.17h-.53zm.01.52v-.54h-.16v.54zm.52-.02h-.53v.17h.53zm-.68.02c0 .08.06.15.15.15v-.17l.01.02zm.15-.69a.15.15 0 0 0 -.15.15h.16l-.01.02zm.51.02.02-.02v.17c.08 0 .15-.07.15-.15zm.15-.68a.15.15 0 0 0 -.15.15h.17l-.02.01zm.69.15a.15.15 0 0 0 -.15-.15v.16l-.02-.01zm-.02.51.02.02h-.17c0 .08.07.15.15.15zm.68.15a.15.15 0 0 0 -.15-.15v.17l-.01-.02zm-.15.69c.09 0 .15-.07.15-.15h-.16l.01-.02zm-.51-.02-.02.02v-.17a.15.15 0 0 0 -.15.15zm-.15.68c.08 0 .15-.06.15-.15h-.17l.02-.01zm-.52-.68a.15.15 0 0 0 -.15-.15v.17l-.02-.02zm-.17.53c0 .09.07.15.15.15v-.16l.02.01z" fill="#000" fill-opacity=".68"/><path d="m4.98 4.73a.25.25 0 0 1 .25-.23h5.54c.13 0 .24.1.25.23l.46 5.56a.25.25 0 0 1 -.19.26c-.54.12-2.08.45-3.29.45s-2.75-.33-3.3-.45a.24.24 0 0 1 -.18-.26z" fill="#221624"/><path d="m6 5.75c0-.14.11-.25.25-.25h3.5c.14 0 .25.11.25.25v3.5c0 .14-.11.25-.25.25h-3.5a.25.25 0 0 1 -.25-.25z" fill="#eee8e3"/><g fill="none"><path d="m6.25 5.38c-.2 0-.38.16-.38.37v3.5c0 .2.17.38.38.38h3.5c.2 0 .38-.17.38-.38v-3.5c0-.2-.17-.38-.38-.38h-3.5z" stroke="#1b1c1d" stroke-opacity=".2" stroke-width=".25"/><path d="m9 6.35-1.77 1.77" stroke="#fff" stroke-linecap="round" stroke-width=".5"/><path d="m8 6.25-.46.46" stroke="#fff" stroke-linecap="round" stroke-width=".35"/></g></svg>