<svg height="160" viewBox="0 0 16 16" width="160" xmlns="http://www.w3.org/2000/svg"><path d="m0 4a4 4 0 0 1 4-4h8a4 4 0 0 1 4 4v8a4 4 0 0 1 -4 4h-8a4 4 0 0 1 -4-4z" fill="#ffc557"/><path d="m4.5 1.875a.625.625 0 0 0 -.625.625v11c0 .345.28.625.625.625h6c.898 0 1.625-.727 1.625-1.625v-10a.625.625 0 0 0 -.625-.625z" fill="#40cfbe" stroke="#fff" stroke-width=".25"/><path clip-rule="evenodd" d="m5.9 12a.1.1 0 0 1 .1.1v.8a.1.1 0 0 0 .1.1h.8a.1.1 0 0 0 .1-.1v-.8a.1.1 0 0 1 .1-.1h.8a.1.1 0 0 0 .1-.1v-.8a.1.1 0 0 0 -.1-.1h-.8a.1.1 0 0 1 -.1-.1v-.8a.1.1 0 0 0 -.1-.1h-.8a.1.1 0 0 0 -.1.1v.8a.1.1 0 0 1 -.1.1h-.8a.1.1 0 0 0 -.1.1v.8a.1.1 0 0 0 .1.1z" fill="#181c25" fill-rule="evenodd"/><path d="m6.125 12.9v-.8h-.25v.8zm.775-.025h-.8v.25h.8zm-.025-.775v.8h.25v-.8zm1.025-.225h-.8v.25h.8zm-.025-.775v.8h.25v-.8zm-.775.025h.8v-.25h-.8zm-.225-1.025v.8h.25v-.8zm-.775.025h.8v-.25h-.8zm.025.775v-.8h-.25v.8zm-1.025.225h.8v-.25h-.8zm.025.775v-.8h-.25v.8zm.775-.025h-.8v.25h.8zm-1.025.025c0 .124.1.225.225.225v-.25c.014 0 .025.011.025.025zm.225-1.025c-.124 0-.225.1-.225.225h.25a.025.025 0 0 1 -.025.025zm.775.025c0-.014.011-.025.025-.025v.25c.124 0 .225-.1.225-.225zm.225-1.025c-.124 0-.225.1-.225.225h.25a.025.025 0 0 1 -.025.025zm1.025.225c0-.124-.1-.225-.225-.225v.25a.025.025 0 0 1 -.025-.025zm-.025.775c.014 0 .025.011.025.025h-.25c0 .124.1.225.225.225zm1.025.225c0-.124-.1-.225-.225-.225v.25a.025.025 0 0 1 -.025-.025zm-.225 1.025c.124 0 .225-.1.225-.225h-.25c0-.014.011-.025.025-.025zm-.775-.025a.025.025 0 0 1 -.025.025v-.25c-.124 0-.225.1-.225.225zm-.225 1.025c.124 0 .225-.1.225-.225h-.25c0-.014.011-.025.025-.025zm-.775-1.025c0-.124-.1-.225-.225-.225v.25a.025.025 0 0 1 -.025-.025zm-.25.8c0 .124.1.225.225.225v-.25c.014 0 .025.011.025.025z" fill="#fff" fill-opacity=".3"/><circle cx="9.5" cy="11.5" fill="#1e1e1e" r=".5"/><circle cx="9.5" cy="11.5" fill="none" r=".625" stroke="#fff" stroke-opacity=".3" stroke-width=".25"/><circle cx="10.5" cy="10.5" fill="#1e1e1e" r=".5"/><circle cx="10.5" cy="10.5" fill="none" r=".625" stroke="#fff" stroke-opacity=".3" stroke-width=".25"/><path d="m5 3.25a.25.25 0 0 1 .25-.25h5.5a.25.25 0 0 1 .25.25v5.5a.25.25 0 0 1 -.25.25h-5.5a.25.25 0 0 1 -.25-.25z" fill="#312933"/><path d="m6 4.25a.25.25 0 0 1 .25-.25h3.5a.25.25 0 0 1 .25.25v3.5a.25.25 0 0 1 -.25.25h-3.5a.25.25 0 0 1 -.25-.25z" fill="#d3ceca"/><g fill="none"><path d="m6.25 3.875a.375.375 0 0 0 -.375.375v3.5c0 .207.168.375.375.375h3.5a.375.375 0 0 0 .375-.375v-3.5a.375.375 0 0 0 -.375-.375z" stroke="#1b1c1d" stroke-opacity=".2" stroke-width=".25"/><path d="m8.621 4.854-1.767 1.767" stroke="#fff" stroke-linecap="round" stroke-width=".5"/><path d="m7.621 4.75-.457.457" stroke="#fff" stroke-linecap="round" stroke-width=".354"/></g></svg>