<svg height="160" viewBox="0 0 16 16" width="160" xmlns="http://www.w3.org/2000/svg"><path d="m0 4a4 4 0 0 1 4-4h8a4 4 0 0 1 4 4v8a4 4 0 0 1 -4 4h-8a4 4 0 0 1 -4-4z" fill="#574181"/><path d="m5.594 9.313c0 .09.048.172.126.217l1.968 1.125a.25.25 0 0 0 .312-.052.25.25 0 0 0 .312.052l1.968-1.125a.25.25 0 0 0 .126-.217v-.546l.344-.203v1.073l-2.688 1.553a.249.249 0 0 0 -.062.05.249.249 0 0 0 -.062-.05l-2.688-1.553v-3.106a.25.25 0 0 0 -.01-.068.25.25 0 0 0 .073-.028l2.686-1.552 2.218 1.301a.25.25 0 0 0 .252.001l1.406-.812a.25.25 0 0 0 0-.433l-3.75-2.157a.25.25 0 0 0 -.25 0l-4.187 2.407a.25.25 0 0 0 -.106.315.25.25 0 0 0 -.207.246v4.844c0 .09.048.172.125.216l4.188 2.407a.25.25 0 0 0 .312-.053.25.25 0 0 0 .313.051l4.188-2.437a.25.25 0 0 0 .124-.216v-4.813a.25.25 0 0 0 -.376-.216l-2.032 1.183a.25.25 0 0 0 -.124-.246l-1.969-1.127a.25.25 0 0 0 -.248 0l-1.969 1.126a.25.25 0 0 0 -.091.344.25.25 0 0 0 -.222.248v2.25z" stroke="#000" stroke-linejoin="round" stroke-opacity=".28" stroke-width=".5"/><path d="m5.844 9.313 1.968 1.124v-2.25l-1.967-1.124v2.25zm-.844.467 2.813 1.625v1.595l-4.188-2.406v-4.844l1.375.781v3.25zm3-4.219-1.969 1.127 1.969 1.125 1.969-1.125-1.969-1.125zm0-.968 2.344 1.375 1.406-.813-3.75-2.155-4.188 2.406 1.376.813 2.812-1.625zm3 5.187v-1.655l-.844.5v.688l-1.969 1.124v-2.25l4.188-2.437v4.813l-4.188 2.437v-1.594l2.813-1.625z" fill="#fff"/></svg>