<svg height="160" viewBox="0 0 16 16" width="160" xmlns="http://www.w3.org/2000/svg"><path d="m0 4a4 4 0 0 1 4-4h8a4 4 0 0 1 4 4v8a4 4 0 0 1 -4 4h-8a4 4 0 0 1 -4-4z" fill="#181c25"/><path d="m10.795 7.818a2.272 2.272 0 0 1 1.082-1.907 2.327 2.327 0 0 0 -1.832-.99c-.772-.082-1.52.46-1.912.46-.4 0-1.006-.453-1.657-.44a2.44 2.44 0 0 0 -2.054 1.254c-.888 1.537-.226 3.797.625 5.04.426.609.923 1.289 1.574 1.264.637-.026.875-.406 1.644-.406.761 0 .985.406 1.649.391.683-.011 1.114-.611 1.525-1.226.305-.433.54-.913.697-1.42a2.196 2.196 0 0 1 -1.34-2.02zm-1.254-3.715a2.238 2.238 0 0 0 .512-1.603c-.57.06-1.096.332-1.473.762a2.13 2.13 0 0 0 -.525 1.544 1.882 1.882 0 0 0 1.486-.703z" fill="#fff"/></svg>