<svg height="160" viewBox="0 0 16 16" width="160" xmlns="http://www.w3.org/2000/svg"><path d="m0 4a4 4 0 0 1 4-4h8a4 4 0 0 1 4 4v8a4 4 0 0 1 -4 4h-8a4 4 0 0 1 -4-4z" fill="#7e8e9d"/><path d="m2 13v-2.18h.32v.34h.03c.05-.12.12-.2.22-.27s.23-.1.37-.1.26.03.36.1c.1.06.17.15.22.27h.03c.05-.11.14-.2.25-.27.1-.07.24-.1.4-.1.2 0 .35.06.48.18.12.12.18.31.18.57v1.46h-.33v-1.46c0-.16-.05-.28-.13-.35a.49.49 0 0 0 -.31-.1.46.46 0 0 0 -.36.14.5.5 0 0 0 -.13.35v1.42h-.34v-1.5a.4.4 0 0 0 -.12-.3.43.43 0 0 0 -.31-.1.46.46 0 0 0 -.24.06.53.53 0 0 0 -.19.2.57.57 0 0 0 -.06.28v1.36zm3.88.05a.89.89 0 0 1 -.38-.08.65.65 0 0 1 -.27-.23.65.65 0 0 1 -.1-.36.52.52 0 0 1 .27-.49c.09-.04.18-.08.28-.1a3.34 3.34 0 0 1 .62-.09.5.5 0 0 0 .19-.05c.03-.02.05-.06.05-.11v-.01a.44.44 0 0 0 -.11-.33c-.08-.08-.2-.11-.35-.11a.6.6 0 0 0 -.37.1.62.62 0 0 0 -.2.22l-.31-.1a.76.76 0 0 1 .22-.32c.1-.07.2-.13.32-.15a1.3 1.3 0 0 1 .57-.02c.1.01.18.04.27.1a.6.6 0 0 1 .21.23c.06.1.09.24.09.41v1.44h-.34v-.3h-.01a.66.66 0 0 1 -.33.29.82.82 0 0 1 -.32.06zm.05-.3c.13 0 .24-.03.33-.08a.53.53 0 0 0 .28-.46v-.3c-.01.01-.04.03-.09.04a1.6 1.6 0 0 1 -.35.06 9.07 9.07 0 0 0 -.38.07.42.42 0 0 0 -.18.12.29.29 0 0 0 -.07.2c0 .11.04.2.13.26s.2.09.33.09zm2.21.3a.94.94 0 0 1 -.53-.15.94.94 0 0 1 -.34-.4 1.35 1.35 0 0 1 -.12-.58c0-.22.04-.42.12-.59s.2-.3.34-.4c.15-.1.32-.14.52-.14.15 0 .3.03.42.08a.74.74 0 0 1 .45.6h-.34a.51.51 0 0 0 -.52-.38.59.59 0 0 0 -.35.1.67.67 0 0 0 -.23.29c-.05.12-.08.26-.08.43s.03.31.08.44c.06.12.13.22.23.29s.21.1.35.1a.6.6 0 0 0 .23-.04.5.5 0 0 0 .29-.34h.33a.78.78 0 0 1 -.43.6.95.95 0 0 1 -.42.09zm3.6-1.5c0 .3-.05.57-.16.8a1.22 1.22 0 0 1 -1.12.7 1.22 1.22 0 0 1 -1.12-.7 1.77 1.77 0 0 1 -.16-.8c0-.31.05-.58.16-.8a1.22 1.22 0 0 1 1.12-.7 1.22 1.22 0 0 1 1.12.7c.1.22.16.49.16.8zm-.34 0c0-.26-.04-.47-.12-.64a.88.88 0 0 0 -.82-.53.89.89 0 0 0 -.48.13.93.93 0 0 0 -.34.4c-.08.17-.12.38-.12.64 0 .25.04.46.12.63.09.18.2.3.34.4.15.09.3.13.48.13a.88.88 0 0 0 .82-.53c.08-.17.12-.38.12-.63zm2.29-.73a.45.45 0 0 0 -.2-.34.8.8 0 0 0 -.46-.12.85.85 0 0 0 -.33.07c-.1.04-.17.1-.23.17a.41.41 0 0 0 -.02.45c.04.05.08.1.14.13l.19.1.18.05.3.08.24.08c.1.04.19.08.27.14a.66.66 0 0 1 .3.58c0 .16-.04.3-.12.43a.84.84 0 0 1 -.36.3c-.16.07-.35.11-.57.11-.21 0-.4-.03-.54-.1a.8.8 0 0 1 -.5-.7h.36c0 .11.04.2.1.27a.6.6 0 0 0 .25.16c.1.04.21.05.33.05.13 0 .25-.02.36-.06.1-.05.2-.1.25-.19.07-.08.1-.17.1-.28 0-.1-.03-.17-.08-.23a.6.6 0 0 0 -.22-.15 2.23 2.23 0 0 0 -.28-.1l-.36-.1c-.23-.07-.4-.16-.54-.28a.61.61 0 0 1 -.2-.48c0-.16.05-.3.13-.42.1-.12.21-.22.36-.29.15-.06.32-.1.5-.1.2 0 .36.03.5.1.15.07.27.16.35.27.09.12.13.25.14.4zm-3.71-5.1a1.59 1.59 0 0 1 .75-1.33 1.63 1.63 0 0 0 -1.28-.7c-.54-.05-1.06.33-1.34.33s-.7-.32-1.16-.31a1.7 1.7 0 0 0 -1.43.88c-.63 1.07-.16 2.65.43 3.52.3.43.65.9 1.1.89.45-.02.62-.28 1.16-.28.53 0 .68.28 1.15.27.48 0 .78-.43 1.07-.86.21-.3.38-.64.49-1a1.54 1.54 0 0 1 -.94-1.4zm-.88-2.6c.26-.31.39-.71.36-1.12a1.6 1.6 0 0 0 -1.33 1.04c-.06.18-.08.38-.07.57a1.32 1.32 0 0 0 1.04-.49z" fill="#fff"/></svg>