<svg height="160" viewBox="0 0 16 16" width="160" xmlns="http://www.w3.org/2000/svg"><path d="m0 4a4 4 0 0 1 4-4h8a4 4 0 0 1 4 4v8a4 4 0 0 1 -4 4h-8a4 4 0 0 1 -4-4z" fill="#f6f6f8"/><path d="m3.71 12.14 1.59-.7-1.59-3.1zm4.29-8.84-1.38 2.44 1.38-.52 1.31.5.35-.39v-2.69z" fill="#0222a9"/><path d="m12.28 12.14-2.5-3.26v4.3l-1.78.76v-7.34l1.79-.69 2.5 3.56v-4.52l1.68-.66v7.13z" fill="#011da9"/><path d="m5.4 4.3.8 1.61.42-.16 1.38-2.45-1.67-.65zm3.91 1.43 1.28-1.44 1.7.66v4.52l-2.5-3.56z" fill="#069330"/><path d="m3.71 4.95-1.7-.66v7.13l1.7.72v-3.8l2.5 4.84 1.79.76v-7.34l-1.8-.7v3.73l-2.49-4.7z" fill="#069330"/><path d="m6.2 5.91v3.73l-2.49-4.7 1.7-.65.8 1.62zm6.08 6.23-2.5-3.26v1.78l.52.71z" fill="#fe2015"/><path d="m9.79 5.91-1.8.69-1.79-.7 1.8-.68 1.79.7zm.8-1.62 1.69-.65 1.7.65-1.7.66-1.7-.66zm-8.57 0 1.69-.65 1.7.65-1.7.66-1.7-.66zm7.64-1.65-1.66-.64-1.67.64 1.67.66 1.66-.65z" fill="#ffc001"/></svg>