<svg height="160" viewBox="0 0 16 16" width="160" xmlns="http://www.w3.org/2000/svg"><path d="m0 4a4 4 0 0 1 4-4h8a4 4 0 0 1 4 4v8a4 4 0 0 1 -4 4h-8a4 4 0 0 1 -4-4z" fill="#808898"/><path d="m8.98 9.66c.46.18 1.43.33 2.18.33.83 0 1.18-.28 1.18-.64 0-.32-.32-.5-1.24-.84-1.22-.46-2.12-.81-2.12-1.61 0-.84 1.08-1.32 2.73-1.32.88 0 1.18.05 1.75.15v.8c-.55-.11-1.04-.3-1.8-.3-.81 0-1.16.27-1.16.53 0 .39.54.57 1.47.9 1.3.47 2.03.83 2.03 1.62 0 .8-.9 1.4-2.96 1.4-.84 0-1.42-.06-2.06-.17zm-4.36-3.39h-.97v3.7h.97c1.5 0 2.44-.65 2.44-1.85s-.94-1.85-2.44-1.85zm2.62 4.03c-.49.22-1.4.36-2.2.36h-3.04v-5.06h3.05c.8 0 1.7.14 2.19.35 1.17.53 1.55 1.38 1.55 2.18s-.38 1.65-1.55 2.18z" fill="#fff"/></svg>