<svg height="160" viewBox="0 0 16 16" width="160" xmlns="http://www.w3.org/2000/svg" xmlns:xlink="http://www.w3.org/1999/xlink"><clipPath id="a"><path d="m0 0h12v9h-12z" transform="translate(2 4)"/></clipPath><path d="m0 4a4 4 0 0 1 4-4h8a4 4 0 0 1 4 4v8a4 4 0 0 1 -4 4h-8a4 4 0 0 1 -4-4z" fill="#1a1a1a"/><g clip-path="url(#a)" fill="#ed1c24"><path clip-rule="evenodd" d="m6.615 13a4.676 4.676 0 0 1 -3.263-1.318 4.444 4.444 0 0 1 -1.352-3.182c0-1.193.486-2.338 1.352-3.182a4.676 4.676 0 0 1 3.263-1.318h2.77c1.224 0 2.398.474 3.263 1.318a4.444 4.444 0 0 1 1.352 3.182 4.444 4.444 0 0 1 -1.352 3.182 4.676 4.676 0 0 1 -3.263 1.318zm0-1.125a3.507 3.507 0 0 1 -2.447-.989 3.333 3.333 0 0 1 -1.014-2.386c0-.895.365-1.754 1.014-2.386a3.507 3.507 0 0 1 2.447-.989h2.77c.918 0 1.798.356 2.447.989a3.333 3.333 0 0 1 1.014 2.386c0 .895-.364 1.754-1.014 2.386-.649.633-1.53.989-2.447.989z" fill-rule="evenodd"/><path d="m5.714 6.38h1.356l1.874 2.956v-2.956h1.343v4.238h-1.343l-1.882-2.955v2.956h-1.347v-4.238z"/></g></svg>