<svg height="160" viewBox="0 0 16 16" width="160" xmlns="http://www.w3.org/2000/svg"><path d="m0 4c0-2.20914 1.79086-4 4-4h8c2.2091 0 4 1.79086 4 4v8c0 2.2091-1.7909 4-4 4h-8c-2.20914 0-4-1.7909-4-4z" fill="#565b65"/><path d="m7.63613 7.0251c0 .35705-.08323.68341-.2497.97908-.16092.2901-.40785.52441-.74078.70293-.32739.17295-.72969.25942-1.20689.25942h-.80737v1.99167h-1.63139v-5.89962h2.43876c.47166 0 .87118.08368 1.19857.25104.33293.16737.58263.39889.7491.69456.16647.29568.2497.63599.2497 1.02092zm-2.35552.63599c.46056 0 .69084-.212.69084-.63599 0-.42956-.23028-.64435-.69084-.64435h-.64922v1.28034zm2.98457.33473c0-.5802.1193-1.09624.3579-1.54812.24416-.45746.58819-.81172 1.03211-1.06276.44391-.25663.95441-.38494 1.53151-.38494.7325 0 1.3484.19805 1.8478.59414.4994.39052.8212.92329.9655 1.59833h-1.7562c-.1055-.22315-.2525-.39331-.4412-.51046-.1831-.11716-.3967-.17573-.6409-.17573-.3773 0-.6797.13668-.9072.41004-.222.26778-.33297.62761-.33297 1.0795 0 .45746.11097.82287.33297 1.09623.2275.26778.5299.40167.9072.40167.2442 0 .4578-.05857.6409-.17573.1887-.11715.3357-.28731.4412-.51046h1.7562c-.1443.67504-.4661 1.21057-.9655 1.60667-.4994.3905-1.1153.5858-1.8478.5858-.5771 0-1.0876-.1255-1.53151-.3766-.44392-.2566-.78795-.6108-1.03211-1.06273-.2386-.45746-.3579-.97908-.3579-1.56485z" fill="#fff"/></svg>