<svg height="160" viewBox="0 0 16 16" width="160" xmlns="http://www.w3.org/2000/svg"><path d="m0 4a4 4 0 0 1 4-4h8a4 4 0 0 1 4 4v8a4 4 0 0 1 -4 4h-8a4 4 0 0 1 -4-4z" fill="#e1e5ec"/><path d="m2.06 8.76v-.06l.02-.06.01-.05.02-.06.03-.05.03-.05.04-.05.04-.06.05-.05.05-.04.06-.05.06-.05.06-.04.07-.04.08-.04.08-.04.08-.04.08-.03.1-.04.09-.03.1-.03.1-.02.1-.03.1-.02.1-.02.12-.02.1-.01.12-.02h.12l.12-.01h.24c1.31 0 2.37.5 2.37 1.1 0 .63-1.06 1.13-2.37 1.13-1.3 0-2.37-.5-2.37-1.12z" fill="#6eb92b"/><path d="m6.44 10.83v-.06l.01-.06.02-.06.02-.06.03-.06.03-.05.04-.06.05-.05.05-.05.05-.05.06-.05.07-.05.06-.05.08-.04.08-.04.08-.04.09-.04.09-.04.09-.03.1-.04.1-.03.1-.03.11-.02.11-.02.11-.03.12-.01.12-.02.12-.01.12-.01.12-.01h.26c1.37 0 2.49.52 2.49 1.17 0 .64-1.12 1.17-2.5 1.17-1.37 0-2.48-.53-2.48-1.17z" fill="#f2bd00"/><path d="m7.46 8.25h.11l.11-.01.11-.02.1-.02.11-.03.1-.03.1-.03.1-.04.1-.05.1-.04.08-.05.1-.06.08-.06.08-.06.08-.07.07-.06.07-.08.07-.07.06-.08.06-.08.06-.08.05-.1.05-.08.04-.09.04-.1.03-.09.03-.1.03-.1.02-.1v-.1l.02-.1v-.1c0-1.16-1-2.1-2.25-2.1-1.23 0-2.23.92-2.25 2.07h.1c1.23 0 2.24.93 2.24 2.09z" fill="#00a7eb"/><path d="m11.84 10.32h.1l.11-.01.1-.02.11-.02.1-.03.1-.03.1-.03.1-.04.09-.04.1-.05.08-.05.08-.05.09-.06.08-.06.07-.06.07-.07.07-.07.07-.07.06-.08.06-.08.05-.08.05-.08.05-.09.04-.09.04-.09.03-.1.03-.09.02-.1.02-.09.02-.1v-.2c0-1.13-.97-2.04-2.18-2.04-1.2 0-2.18.9-2.19 2.01h.09c1.2 0 2.19.91 2.19 2.04z" fill="#e60012"/></svg>