<svg height="160" viewBox="0 0 16 16" width="160" xmlns="http://www.w3.org/2000/svg"><path d="m0 4a4 4 0 0 1 4-4h8a4 4 0 0 1 4 4v8a4 4 0 0 1 -4 4h-8a4 4 0 0 1 -4-4z" fill="#144e81"/><path clip-rule="evenodd" d="m11.425 8.97a3 3 0 1 0 -3.425-2.97l-1.21 2.017a2.49 2.49 0 0 0 -1.811.5l-1.729-1-1 1.732 1.76 1.017a2.5 2.5 0 1 0 4.977-.01l2.513-1.257-.075-.03zm-6.38 1.893a1.5 1.5 0 1 0 .933-1.77l.736.425a1 1 0 0 1 -1 1.732l-.67-.387zm7.955-4.863a2 2 0 1 1 -4 0 2 2 0 0 1 4 0zm-1 0a1 1 0 1 1 -2 0 1 1 0 0 1 2 0z" fill="#fff" fill-rule="evenodd"/></svg>