<svg height="160" viewBox="0 0 16 16" width="160" xmlns="http://www.w3.org/2000/svg"><path d="m0 4a4 4 0 0 1 4-4h8a4 4 0 0 1 4 4v8a4 4 0 0 1 -4 4h-8a4 4 0 0 1 -4-4z" fill="#e60012"/><path d="m8.896 13h1.541a2.563 2.563 0 0 0 2.563-2.563v-4.874a2.563 2.563 0 0 0 -2.563-2.563h-1.549a.062.062 0 0 0 -.063.063v9.866c0 .04.032.071.071.071zm1.904-5.511c.558 0 1.014.456 1.014 1.014s-.456 1.014-1.014 1.014a1.017 1.017 0 0 1 -1.014-1.014 1.022 1.022 0 0 1 1.014-1.014zm-6.243-1.486c0 .519.424.944.943.944a.946.946 0 0 0 .943-.944.946.946 0 0 0 -.943-.943.936.936 0 0 0 -.943.943zm3.191-3.003h-2.185a2.563 2.563 0 0 0 -2.563 2.563v4.874a2.563 2.563 0 0 0 2.563 2.563h2.185a.07.07 0 0 0 .071-.07v-9.86a.07.07 0 0 0 -.069-.07zm-.73 9.198h-1.456c-.472 0-.912-.18-1.242-.519-.33-.33-.52-.77-.52-1.242v-4.874c0-.472.182-.912.52-1.242.33-.33.77-.52 1.242-.52h1.454v8.397z" fill="#fff"/></svg>