<svg height="160" viewBox="0 0 16 16" width="160" xmlns="http://www.w3.org/2000/svg"><path d="m0 4c0-2.20914 1.79086-4 4-4h8c2.2091 0 4 1.79086 4 4v8c0 2.2091-1.7909 4-4 4h-8c-2.20914 0-4-1.7909-4-4z" fill="#e1e5ec"/><path clip-rule="evenodd" d="m12.6262 5.6542c0 .35514.3084.65421.6823.65421.3831 0 .6916-.28973.6916-.65421 0-.36449-.3085-.6542-.6916-.6542-.3739 0-.6823.28971-.6823.6542zm-5.08414 3.63553 1.00936-3.97197h1.2243s-1.16824 4.23365-1.32711 4.72894c-.13084.3832-.42056.6916-.85981.6916-.49534 0-.72897-.3645-.84113-.6916-.10281-.33641-.85981-3.13081-.85981-3.13081s-.75702 2.7944-.86917 3.13081c-.10279.3271-.33645.6916-.84112.6916-.42989 0-.72897-.3084-.85046-.6916-.15888-.49529-1.32711-4.72894-1.32711-4.72894h1.21496l1.01869 3.97197s.77571-2.98131.89719-3.41123c.13085-.42056.38319-.60747.75702-.60747.36448 0 .62617.18691.74766.60747.13085.42992.90654 3.41123.90654 3.41123zm4.00944 1.41117v-3.74765h-1.1589v3.74765zm2.3458 0v-3.74765h-1.1589v3.74765zm-2.944-4.39249c-.3738 0-.6729-.29907-.6729-.65421 0-.36449.2991-.6542.6729-.6542.3925 0 .7009.28971.7009.6542 0 .36448-.3084.65421-.7009.65421z" fill="#8b8b8b" fill-rule="evenodd"/></svg>