<svg height="160" viewBox="0 0 16 16" width="160" xmlns="http://www.w3.org/2000/svg"><path d="m0 4a4 4 0 0 1 4-4h8a4 4 0 0 1 4 4v8a4 4 0 0 1 -4 4h-8a4 4 0 0 1 -4-4z" fill="#009ac7"/><path clip-rule="evenodd" d="m9.331 8.213c0 1.575-2.663 1.897-2.663-.355v-3.373h2.663zm-4.438 3.787c-1.123 0-1.893-.662-1.893-1.775v-4.556c0-.72.629-1.184 1.36-1.184h1.125v3.965c0 2.84 5.089 2.862 5.089-.06v-3.845h1.48c.523 0 .946.616.946 1.184v4.674c0 .943-.767 1.598-1.716 1.598h-6.39z" fill="#fff" fill-rule="evenodd"/></svg>