<svg height="58" viewBox="0 0 58 58" width="58" xmlns="http://www.w3.org/2000/svg"><path d="m29 57.22a28.22 28.22 0 1 0 -28.22-28.22 28.21 28.21 0 0 0 28.22 28.22zm11.13-39.4a17.17 17.17 0 0 1 -3.13 28.28 17.15 17.15 0 0 1 -5-22.1 12.7 12.7 0 0 0 8.13-6.18zm-19.74-7.49 1.61-1.56 5 5.06h.17.15.64 1 1 .64.15.17l5.06-5.06 1.56 1.56-4 4a17.3 17.3 0 0 1 4.52 2 10.37 10.37 0 0 1 -18.26 0 17.3 17.3 0 0 1 4.52-2zm-2.52 7.49a12.7 12.7 0 0 0 8.13 6.18 17.15 17.15 0 0 1 -5 22.1 17.17 17.17 0 0 1 -3.16-28.28z" fill="#90c12c"/></svg>