<svg height="58" viewBox="0 0 58 58" width="58" xmlns="http://www.w3.org/2000/svg"><g fill="#0a6dc4"><path d="m29 57.22a28.22 28.22 0 1 0 -28.22-28.22 28.21 28.21 0 0 0 28.22 28.22zm-16.33-24.11s3.49-3.45 12.88-3.45c-6.62 8.28 1.45 16.72 1.45 16.72a17 17 0 0 1 -14.33-13.27zm8.13-18.3c.43-.25 7.68-4.55 9.34-9.45 0 0 1.24 4-.16 7.2a17 17 0 0 1 7.18 32.06 7.24 7.24 0 0 1 -7.38-.34 9.36 9.36 0 0 1 -4.25-5.78 14 14 0 0 0 7.19-1.1 7.66 7.66 0 0 0 3.86-6.77 7.2 7.2 0 0 0 -2.21-5.93s-2.76-2.21-3.31-4.42c0 0-1.58 5.91-9.69 6.33-8 .42-9.69 2.16-9.69 2.16.24-6.03 4.21-11.12 9.12-13.96z"/><path d="m21.65 21.8a3.21 3.21 0 0 0 .52-3.09c-3.52.91-4.86 5.26-4.86 5.26s3.18-.84 4.34-2.17z"/></g></svg>