<svg height="58" viewBox="0 0 58 58" width="58" xmlns="http://www.w3.org/2000/svg"><g fill="#ec8fe6"><path d="m29 .78a28.22 28.22 0 1 0 28.22 28.22 28.21 28.21 0 0 0 -28.22-28.22zm19.47 29.22-8.28 4.93a.54.54 0 0 0 -.25.62l1.37 5.13a.56.56 0 0 1 -.68.68l-5.13-1.42a.54.54 0 0 0 -.62.25l-4.88 8.28a1.11 1.11 0 0 1 -1.9 0l-4.93-8.28a.54.54 0 0 0 -.62-.25l-5.13 1.37a.56.56 0 0 1 -.68-.68l1.37-5.13a.54.54 0 0 0 -.25-.62l-8.33-4.88a1.11 1.11 0 0 1 0-1.9l8.28-4.93a.54.54 0 0 0 .25-.62l-1.37-5.13a.56.56 0 0 1 .68-.68l5.13 1.37a.54.54 0 0 0 .62-.25l4.93-8.28a1.11 1.11 0 0 1 1.9 0l4.93 8.28a.54.54 0 0 0 .62.25l5.13-1.37a.56.56 0 0 1 .68.68l-1.37 5.08a.54.54 0 0 0 .25.62l8.28 4.93a1.11 1.11 0 0 1 0 1.95z"/><path d="m36.37 28.52-4.24-2.45a.64.64 0 0 1 -.2-.2l-2.45-4.24a.55.55 0 0 0 -1 0l-2.45 4.24a.64.64 0 0 1 -.2.2l-4.24 2.45a.55.55 0 0 0 0 1l4.24 2.45a.64.64 0 0 1 .2.2l2.45 4.24a.55.55 0 0 0 1 0l2.45-4.24a.64.64 0 0 1 .2-.2l4.24-2.45a.55.55 0 0 0 0-1z"/></g></svg>