<svg height="58" viewBox="0 0 58 58" width="58" xmlns="http://www.w3.org/2000/svg"><path d="m29 .78a28.22 28.22 0 1 0 28.22 28.22 28.21 28.21 0 0 0 -28.22-28.22zm-13.51 42.06h-2.62l-3-7.51a5.59 5.59 0 0 1 0-4.14l3-7.5h2.62zm29.93-.55a.55.55 0 0 1 -.55.55h-25a2.14 2.14 0 0 1 -2.14-2.14v-13.23a1.52 1.52 0 0 1 .09-.49 1.18 1.18 0 0 1 -.09-.46v-10a1.38 1.38 0 0 1 1.38-1.38h2.57a1.38 1.38 0 0 1 1.32 1.4v8.79a.55.55 0 0 0 .55.55h1a.55.55 0 0 0 .55-.55v-8.79a1.38 1.38 0 0 1 1.38-1.38h2.62a1.38 1.38 0 0 1 1.38 1.38v8.79a.55.55 0 0 0 .55.55h1a.55.55 0 0 0 .55-.55v-8.79a1.38 1.38 0 0 1 1.42-1.38h2.57a1.38 1.38 0 0 1 1.43 1.38v8.79a.55.55 0 0 0 .55.55h1a.55.55 0 0 0 .55-.55v-8.79a1.38 1.38 0 0 1 1.38-1.38h2.52a1.38 1.38 0 0 1 1.38 1.38z" fill="#ce4069"/></svg>