<svg height="58" viewBox="0 0 58 58" width="58" xmlns="http://www.w3.org/2000/svg"><g fill="#5269ac"><path d="m19.6 22.2s0-.09 0-.14a3.95 3.95 0 1 0 5.49 3.78 4 4 0 0 1 -5.5-3.64z"/><path d="m36.62 22.06v.14a4 4 0 0 1 -5.5 3.64 3.95 3.95 0 1 0 5.49-3.78z"/><path d="m29 .78a28.22 28.22 0 1 0 28.22 28.22 28.21 28.21 0 0 0 -28.22-28.22zm14.66 42.85c.19 0 .72-.15.56-.06-4.91 3-12.38 3-12.38 3a23.19 23.19 0 0 1 -11.19-2.46 17.81 17.81 0 0 1 -5.45-3.95l-.08-.08a.69.69 0 0 0 -.11-.13l-.27-.31a17.59 17.59 0 1 1 26.88-.27 2.61 2.61 0 0 0 -.62 1.63 2.63 2.63 0 0 0 2.66 2.63z"/></g></svg>