<svg height="58" viewBox="0 0 58 58" width="58" xmlns="http://www.w3.org/2000/svg"><g fill="#ab6ac8"><path d="m29 17.6c-6.58 0-11.93 4.18-11.93 9.33s5.35 9.33 11.93 9.33 11.93-4.19 11.93-9.33-5.35-9.33-11.93-9.33z"/><path d="m29 .78a28.22 28.22 0 1 0 28.22 28.22 28.21 28.21 0 0 0 -28.22-28.22zm12.18 37.49a6 6 0 0 1 .68 2.8c0 3-2.1 5.41-4.69 5.41a4.69 4.69 0 0 1 -4.26-3.18 4.38 4.38 0 0 1 -3.91 3.18 4.38 4.38 0 0 1 -3.91-3.18 4.69 4.69 0 0 1 -4.26 3.18c-2.59 0-4.69-2.42-4.69-5.41a6 6 0 0 1 .68-2.8 14.48 14.48 0 0 1 -5.82-11.34c0-8.5 8.08-15.41 18-15.41s18 6.91 18 15.41a14.48 14.48 0 0 1 -5.82 11.34z"/></g></svg>