<svg height="58" viewBox="0 0 58 58" width="58" xmlns="http://www.w3.org/2000/svg"><path d="m47 26.93c0-8.5-8.08-15.41-18-15.41s-18 6.91-18 15.41a14.48 14.48 0 0 0 5.83 11.34 6 6 0 0 0 -.68 2.8c0 3 2.1 5.41 4.69 5.41a4.69 4.69 0 0 0 4.26-3.18 4.38 4.38 0 0 0 3.9 3.18 4.38 4.38 0 0 0 3.91-3.18 4.69 4.69 0 0 0 4.26 3.18c2.59 0 4.69-2.42 4.69-5.41a6 6 0 0 0 -.68-2.8 14.48 14.48 0 0 0 5.82-11.34zm-18 9.33c-6.58 0-11.93-4.19-11.93-9.33s5.35-9.33 11.93-9.33 11.93 4.18 11.93 9.33-5.35 9.33-11.93 9.33z" fill="#ab6ac8"/></svg>