<?xml version="1.0" encoding="utf-8"?>
<!-- Svg Vector Icons : http://www.onlinewebfonts.com/icon -->
<!DOCTYPE svg PUBLIC "-//W3C//DTD SVG 1.1//EN" "http://www.w3.org/Graphics/SVG/1.1/DTD/svg11.dtd">
<svg version="1.1" xmlns="http://www.w3.org/2000/svg" xmlns:xlink="http://www.w3.org/1999/xlink" x="0px" y="0px" viewBox="0 0 1000 1000" enable-background="new 0 0 1000 1000" xml:space="preserve">
<metadata> Svg Vector Icons : http://www.onlinewebfonts.com/icon </metadata>
<g><g transform="translate(0.000000,511.000000) scale(0.100000,-0.100000)"><path d="M1583.5,4972.6c-318.5-115.2-536.4-381.3-588.8-716.6c-12.6-81.7-18.9-1672-14.7-4238.7l6.3-4106.7l48.2-119.4c111.1-272.4,335.2-479.8,595.1-549c121.5-33.5,352-35.6,2824.4-29.3c2677.8,8.4,2692.4,8.4,2860,52.4c402.3,109,762.7,316.4,1047.6,603.4c381.3,383.4,595.1,850.7,639.1,1393.4c27.2,329,27.2,6795,0,6987.7c-41.9,297.5-230.5,553.2-500.8,687.2l-138.3,67.1l-3331.5,4.2C1755.3,5012.4,1696.7,5012.4,1583.5,4972.6z M8141.7,746.4c-2.1-3815.5,8.4-3587.1-157.1-3918.2c-155.1-314.3-406.5-536.4-760.6-674.7l-140.4-54.5l-2612.8-6.3l-2614.9-4.2V111.5v4022.9h3142.9h3142.9V746.4z"/><path d="M2576.7,3633.7c-115.2-52.4-211.6-173.9-238.9-303.8c-16.8-73.3-21-607.6-16.8-1722.3l6.3-1615.5l62.9-100.6c46.1-75.4,94.3-119.4,176-161.3l113.1-58.7l2340.4,4.2l2340.4,6.3l100.6,62.9c73.3,44,117.3,94.3,155.1,167.6l54.5,102.7l6.3,1602.9c4.2,1072.8-2.1,1638.5-16.8,1709.7c-27.2,132-121.5,253.5-238.9,305.9c-81.7,37.7-194.9,39.8-2422.1,39.8C2771.5,3673.5,2658.4,3671.4,2576.7,3633.7z M6800.7,1672.5v-1121H4998.8H3196.9v1121v1121h1801.9h1801.9V1672.5z"/><path d="M3217.8-1239.9v-450.5h-450.5h-450.5v-440v-440h450.5h450.5v-440v-440h440h440v440v440h450.5h450.5v440v440h-450.5h-450.5v450.5v450.5h-440h-440V-1239.9z"/><path d="M7108.7-1256.7c-108.9-33.5-215.8-125.7-268.2-228.4c-35.6-69.1-41.9-115.2-35.6-217.9c10.5-163.4,85.9-285,226.3-360.4c192.8-102.7,463.1-27.2,574.1,161.3c142.5,245.1,20.9,561.5-247.3,641.1C7236.6-1225.2,7215.6-1223.1,7108.7-1256.7z"/><path d="M6161.7-2168.1c-176-81.7-276.6-261.9-255.6-448.4c16.8-132,67.1-217.9,178.1-303.8c303.8-232.6,743.8,37.7,687.2,423.3c-16.8,109-115.2,251.4-217.9,310.1C6452.9-2128.3,6264.4-2119.9,6161.7-2168.1z"/></g></g>
</svg>