<svg height="894" viewBox="0 0 894 894" width="894" xmlns="http://www.w3.org/2000/svg"><path d="m240.75 146.08c-1.661.967-1.75 16.356-1.75 300.935 0 295.493.029 299.93 1.934 300.95 1.311.701 55.283 1.035 167.497 1.035h165.563l4.24-3.75c2.331-2.062 20.558-18.508 40.503-36.545l36.263-32.794v-263.884c0-238.561-.151-264.035-1.571-265.456-1.419-1.418-21.486-1.568-206.25-1.541-137.168.021-205.256.367-206.429 1.05m77.25 165.42v99.5h129 129v-99.5-99.5h-129-129zm262.205 177.333c-18.165 6.483-25.513 27.79-15.039 43.604 5.553 8.383 13.802 12.569 24.733 12.553 30.061-.044 39.591-41.329 12.589-54.54-7.195-3.52-15.302-4.108-22.283-1.617m-240.205 26.967c0 9.4-.383 14.183-1.2 15-.821.821-5.711 1.2-15.5 1.2h-14.3v14.5 14.5h13.929c11.329 0 14.221.293 15.5 1.571 1.278 1.279 1.571 4.171 1.571 15.5v13.929h14 14v-13.566c0-7.461.466-14.436 1.035-15.5.95-1.775 2.223-1.934 15.5-1.934h14.465v-14.5-14.5h-14.3c-9.789 0-14.679-.379-15.5-1.2-.817-.817-1.2-5.6-1.2-15v-13.8h-14-14zm169.027 38.877c-6.185 2.265-14.217 10.499-16.351 16.76-2.71 7.955-2.226 16.143 1.382 23.363 4.939 9.884 12.898 15.186 23.942 15.949 21.081 1.457 36.435-19.157 29.02-38.961-4.331-11.57-13.299-17.936-25.982-18.446-5.158-.208-8.95.214-12.011 1.335" fill="#040404" fill-rule="evenodd"/></svg>