<?xml version="1.0"?>
<svg xmlns="http://www.w3.org/2000/svg" viewBox="0 0 24 24">
    <path d="M19,14h-1v-1h-2v-2.184c1.161-0.414,2-1.514,2-2.816V5c0-1.654-1.346-3-3-3H8C6.346,2,5,3.346,5,5v3 c0,1.302,0.839,2.402,2,2.816V13H5c-1.657,0-3,1.343-3,3v2c0,1.657,1.343,3,3,3h13v-1h1c1.657,0,3-1.343,3-3S20.657,14,19,14z M8,18 H7v1H5v-1H4v-2h1v-1h2v1h1V18z M14,13H9v-2h5V13z M15,9H8C7.448,9,7,8.551,7,8V5c0-0.551,0.448-1,1-1h7c0.552,0,1,0.449,1,1v3 C16,8.551,15.552,9,15,9z M19,18c-0.552,0-1-0.448-1-1c0-0.552,0.448-1,1-1s1,0.448,1,1C20,17.552,19.552,18,19,18z"/>
</svg>
