<?xml version="1.0" encoding="UTF-8" standalone="no"?>
<svg
   xmlns="http://www.w3.org/2000/svg"
   version="1.1"
   viewBox="0 0 400 400"
   height="400"
   width="400">
  <g>
    <circle
       r="184"
       cy="200"
       cx="200"
       style="opacity:1;fill:#4d4e52;fill-opacity:1;stroke:none;" />
    <circle
       r="154"
       cy="200"
       cx="200"
       style="opacity:1;fill:#ffffff;fill-opacity:1;stroke:none;" />
    <circle
       r="136"
       cy="200"
       cx="200"
       style="opacity:1;fill:#4d4e52;fill-opacity:1;stroke:none;" />
    <path
       d="m 200,82 c -65.1696,0 -118,52.8304 -118,118 0,65.1696 52.8304,118 118,118 65.1696,0 118,-52.8304 118,-118 -0.0266,-7.51049 -0.77003,-14.98831 -2.21289,-22.33203 l -120.99023,0.004 v 50.34374 h 46.58007 C 232.35994,241.32519 217.12853,249.98593 200,250 c -27.61424,0 -50,-22.38576 -50,-50 0,-27.61424 22.38576,-50 50,-50 16.09158,0.0246 31.1879,7.79223 40.5625,20.87109 l 52.84375,-42.74023 C 271.11145,99.098296 236.60525,82.056602 200,82 Z"
       style="opacity:1;fill:#4d4e52;fill-opacity:1;stroke:#ffffff;stroke-width:12;stroke-linecap:round;stroke-linejoin:miter;stroke-miterlimit:4;stroke-dasharray:none;stroke-opacity:1" />
    <path
       d="m 323.75,127 -40.09375,32.875 h 49.125 z"
       style="fill:#fbfbfb;fill-opacity:1;fill-rule:evenodd;stroke:none;" />
  </g>
</svg>
