<?xml version="1.0" encoding="UTF-8" standalone="no"?>
<!DOCTYPE svg PUBLIC "-//W3C//DTD SVG 1.1//EN" "http://www.w3.org/Graphics/SVG/1.1/DTD/svg11.dtd">
<svg width="100%" height="100%" viewBox="0 0 894 894" version="1.1" xmlns="http://www.w3.org/2000/svg" xmlns:xlink="http://www.w3.org/1999/xlink" xml:space="preserve" xmlns:serif="http://www.serif.com/" style="fill-rule:evenodd;clip-rule:evenodd;stroke-linejoin:round;stroke-miterlimit:2;">
    <g transform="matrix(1,0,0,1,-1.13687e-13,-31.8747)">
        <path d="M655,651.693C655,705.398 611.398,749 557.693,749L239,749L239,208.749L655,208.749L655,651.693ZM596.12,285.561C596.12,270.715 584.066,258.661 569.22,258.661L324.78,258.661C309.934,258.661 297.88,270.715 297.88,285.561L297.88,451.975C297.88,466.821 309.934,478.875 324.78,478.875L569.22,478.875C584.066,478.875 596.12,466.821 596.12,451.975L596.12,285.561ZM509.156,609.219C492.046,609.219 478.156,623.11 478.156,640.219C478.156,657.328 492.046,671.219 509.156,671.219C526.265,671.219 540.156,657.328 540.156,640.219C540.156,623.11 526.265,609.219 509.156,609.219ZM586.272,552.919C569.163,552.919 555.272,566.81 555.272,583.919C555.272,601.028 569.163,614.919 586.272,614.919C603.382,614.919 617.272,601.028 617.272,583.919C617.272,566.81 603.382,552.919 586.272,552.919ZM327.185,620.356L327.185,653.582C327.185,659.463 331.96,664.238 337.84,664.238L359.151,664.238C365.032,664.238 369.807,659.463 369.807,653.582L369.807,620.356L403.033,620.356C408.914,620.356 413.689,615.581 413.689,609.7L413.689,588.39C413.689,582.509 408.914,577.734 403.033,577.734L369.807,577.734L369.807,544.508C369.807,538.627 365.032,533.852 359.151,533.852L337.84,533.852C331.96,533.852 327.185,538.627 327.185,544.508L327.185,577.734L293.958,577.734C288.077,577.734 283.303,582.509 283.303,588.39L283.303,609.7C283.303,615.581 288.077,620.356 293.958,620.356L327.185,620.356Z" style="fill:rgb(4,4,4);"/>
    </g>
</svg>
